<?xml version="1.0" encoding="UTF-8" standalone="no"?>
<!DOCTYPE svg  PUBLIC '-//W3C//DTD SVG 1.1//EN'  'http://www.w3.org/Graphics/SVG/1.1/DTD/svg11.dtd'>
<svg id="Layer_1" xmlns="http://www.w3.org/2000/svg" xml:space="preserve" height="127px" viewBox="40.5 21.5 242 127" width="242px" version="1.1" y="0px" x="0px" xmlns:xlink="http://www.w3.org/1999/xlink" enable-background="new 40.5 21.5 242 127">
<rect fill-opacity="0" height="127" width="242" y="21.5" x="40.5" fill="#fff"/>
	<path d="m58.939 94.525h17.372s6.471-0.092 9.854-3.359 3.655-6.961 3.617-8.517c-0.039-1.556-0.233-2.528-0.233-2.528l-5.795 1.867s0.557 4.334-2.567 6.728c-2.981 2.284-6.646 2.467-8.983 1.478-2.346-0.992-2.684-1.75-2.684-1.75l-10.581 6.081z" fill="#76B629"/>
	<path d="m87.193 70.996c-10.531 4.275-19.892 11.431-22.727 13.726s-10.081 9.811-10.081 9.811h2.791s5.78-4.651 13.472-9.058c0.741 1.206 2.105 2.018 3.67 2.018 2.354 0 4.262-1.831 4.262-4.089 0-0.63-0.153-1.225-0.418-1.757 8.023-3.569 16.053-5.745 16.053-5.745l-3.511 18.587h9.901l5.491-28.802c0.01-0.002-8.366 1.033-18.897 5.309z" fill="#532684"/>
	<path d="m134.05 75.437l-0.795 4.251s-6.278-0.993-9.973-0.635-5.324 2.106-5.88 4.052c-0.556 1.947-1.073 6.119 1.47 6.754s4.808 0.556 7.192 0.477c2.384-0.08 5.205-0.516 5.205-0.516l-0.755 4.37s-6.397 0.874-11.165 0.874-7.549-0.795-10.251-2.145c-2.702-1.351-3.059-4.331-2.901-6.079s1.086-5.604 2.583-7.748c1.748-2.503 4.727-3.649 9.578-4.491 5.78-1.005 15.68 0.836 15.68 0.836z" fill="#532684"/>
	<path d="m149.39 65.765h-5.926s-4.002-0.416-4.886 4.158-1.611 8.42-1.611 8.42l-3.119 16.113h9.98l5.57-28.691z" fill="#532684"/>
	<path d="m195.76 65.834h-5.926s-4.002-0.416-4.886 4.158-1.611 8.42-1.611 8.42l-3.119 16.113h9.98l5.57-28.691z" fill="#532684"/>
	<path d="m210.18 65.903h-5.926s-4.002-0.416-4.886 4.158-1.611 8.42-1.611 8.42l-3.119 16.113h9.98l5.57-28.691z" fill="#532684"/>
	<path d="m146.38 77.356s6.029-2.807 11.332-2.703c5.302 0.104 6.706 3.015 6.029 7.485-0.676 4.47-2.391 12.371-2.391 12.371h-9.876l2.183-11.332s1.364-4.101-2.796-3.599c-4.124 0.496-5.43 2.055-5.43 2.055l0.96-4.277z" fill="#532684"/>
	<path d="m235.49 75.702c-5.883-1.311-12.156-1.524-17.472 0.071s-7.017 6.025-7.336 7.797c-0.319 1.772-0.638 3.189-0.638 3.189s-1.034 5.179 4.388 6.845c5.423 1.665 7.916 1.453 11.135 1.519 3.376 0.069 10.171-0.709 10.171-0.709l0.709-3.969s-4.962 0.709-8.896 0.744-6.237-0.213-7.017-1.489-0.354-2.764-0.354-2.764h18.996l0.851-4.111c0.01 0.001 1.36-5.812-4.53-7.123zm-5.01 5.619l-0.358 1.658h-9.12s0.245-1.639 0.452-2.355 0.509-1.263 1.489-1.884c0.98-0.622 2.45-0.566 3.373-0.566s2.223-0.113 3.336 0.659c1.25 0.875 0.83 2.488 0.83 2.488z" fill="#532684"/>
	<path d="m269.27 75.462l-0.859 3.941s-5.214-0.829-9.569-0.681-5.629 1.007-5.273 2.459 4.444 0.889 7.465 1.244c3.022 0.356 6.844 1.037 7.258 4.444s-2.015 6.547-8.562 7.732-14.22 0.148-16.027 0.03c-1.808-0.118-2.607-0.355-2.607-0.355l0.711-3.91s5.599 0.681 9.48 0.711 5.451-0.296 6.192-1.659-1.156-2.133-2.429-2.192c-1.273-0.059-8.176 0.178-10.369-1.985-2.192-2.163-1.956-6.133 1.777-8.532s11.288-1.956 13.48-1.985c2.19-0.033 9.33 0.738 9.33 0.738z" fill="#532684"/>
	<g fill="#532684">
		<path d="m169.69 75.014c-0.384 2.008-0.634 3.329-0.634 3.329l-3.119 16.113h9.98l3.769-19.443-10 0.001z"/>
		<path d="m180.46 71.06l1.027-5.295h-5.926s-4.002-0.416-4.886 4.158c-0.075 0.386-0.147 0.764-0.219 1.137h10.01z"/>
	</g>
		<g fill="#532684">
			<path d="m93.913 98.621c0.521 0 1.006 0.043 1.452 0.128 0.447 0.085 0.835 0.224 1.166 0.418 0.33 0.194 0.588 0.446 0.774 0.759 0.186 0.312 0.279 0.69 0.279 1.135 0 0.425-0.062 0.811-0.184 1.156s-0.295 0.653-0.519 0.922-0.49 0.501-0.798 0.695c-0.309 0.194-0.644 0.353-1.006 0.475l1.549 3.532h-2.682l-1.198-3.178h-1.069l-0.703 3.178h-2.554l2.076-9.221c-0.001-0.008 3.417-0.008 3.417-0.008zm-1.82 4.259h0.926c0.692 0 1.206-0.135 1.54-0.404 0.335-0.27 0.503-0.626 0.503-1.071 0-0.34-0.131-0.591-0.391-0.751-0.261-0.161-0.63-0.241-1.11-0.241h-0.926l-0.542 2.46z"/>
			<path d="m104.9 105.74h-2.858l-1.069 2.099h-2.81l5.428-9.221h3.065l0.99 9.221h-2.683l-0.07-2.1zm-0.07-1.7l-0.032-1.078c-0.021-0.444-0.037-0.877-0.048-1.298s-0.016-0.867-0.016-1.341h-0.064c-0.213 0.454-0.413 0.896-0.598 1.327-0.187 0.431-0.391 0.868-0.615 1.312l-0.543 1.078h1.91z"/>
			<path d="m112.28 98.621h2.427c0.723 0 1.375 0.073 1.956 0.22 0.58 0.146 1.069 0.369 1.469 0.667 0.399 0.298 0.705 0.674 0.918 1.128s0.319 0.993 0.319 1.617c0 0.936-0.146 1.754-0.439 2.454s-0.697 1.281-1.213 1.745-1.125 0.811-1.828 1.042c-0.703 0.232-1.458 0.348-2.267 0.348h-3.417l2.07-9.229zm1.27 7.399c0.426 0 0.833-0.064 1.221-0.192 0.388-0.127 0.729-0.335 1.022-0.624s0.524-0.662 0.695-1.12c0.17-0.459 0.256-1.023 0.256-1.696 0-0.359-0.053-0.664-0.159-0.915s-0.253-0.454-0.439-0.61c-0.187-0.156-0.409-0.267-0.671-0.334s-0.541-0.099-0.838-0.099h-0.224l-1.245 5.589 0.39-0.01z"/>
			<path d="m123.87 98.621h2.555l-2.076 9.221h-2.555l2.09-9.219z"/>
			<path d="m133.61 105.74h-2.858l-1.069 2.099h-2.81l5.428-9.221h3.065l0.99 9.221h-2.683l-0.06-2.1zm-0.07-1.7l-0.032-1.078c-0.021-0.444-0.037-0.877-0.048-1.298s-0.016-0.867-0.016-1.341h-0.064c-0.213 0.454-0.413 0.896-0.598 1.327-0.187 0.431-0.391 0.868-0.615 1.312l-0.543 1.078h1.92z"/>
			<path d="m140.98 98.621h2.555l-1.66 7.32h3.768l-0.415 1.901h-6.323l2.06-9.219z"/>
		</g>
</svg>
