<?xml version="1.0" encoding="UTF-8" standalone="no"?>
<!DOCTYPE svg  PUBLIC '-//W3C//DTD SVG 1.1//EN'  'http://www.w3.org/Graphics/SVG/1.1/DTD/svg11.dtd'>
<svg id="Layer_1" xmlns="http://www.w3.org/2000/svg" xml:space="preserve" height="127px" viewBox="0 0 242 127" width="242px" version="1.1" y="0px" x="0px" xmlns:xlink="http://www.w3.org/1999/xlink" enable-background="new 0 0 242 127">
<style type="text/css">
	.st0{fill:#FFFFFF;fill-opacity:0;}
	.st1{fill:#59595C;}
	.st2{fill:#C7252D;}
	.st3{fill:#FFFFFF;}
</style>
<rect y="0" class="st0" width="242" height="127"/>
<g>
	<g>
		<path class="st1" d="M59.6,94.3l2.5-5.6c0.1-0.3,0.4-0.5,0.7-0.5l0.1,0c0.3,0,0.6,0.2,0.7,0.5l2.6,5.6c0,0.1,0.1,0.2,0.1,0.2
			c0,0.3-0.2,0.6-0.6,0.6c-0.3,0-0.5-0.2-0.6-0.4l-0.6-1.3l-3.3,0l-0.6,1.3c-0.1,0.2-0.3,0.4-0.5,0.4c-0.3,0-0.5-0.2-0.6-0.5
			C59.5,94.5,59.5,94.4,59.6,94.3 M64,92.4l-1.2-2.7l-1.2,2.7L64,92.4z"/>
		<path class="st1" d="M70,91.7L70,91.7c0-1.9,1.4-3.5,3.5-3.5c1,0,1.7,0.2,2.3,0.7c0.1,0.1,0.2,0.3,0.2,0.5c0,0.3-0.3,0.6-0.6,0.6
			c-0.2,0-0.3-0.1-0.4-0.1c-0.4-0.3-0.9-0.5-1.6-0.5c-1.2,0-2.2,1.1-2.2,2.4l0,0c0,1.4,0.9,2.4,2.3,2.4c0.6,0,1.2-0.2,1.6-0.5l0-1.3
			l-1.3,0c-0.3,0-0.5-0.2-0.5-0.5s0.2-0.5,0.5-0.5l1.9,0c0.3,0,0.6,0.3,0.6,0.6l0,1.8c0,0.3-0.1,0.6-0.4,0.8
			c-0.6,0.4-1.4,0.7-2.4,0.8C71.4,95.1,70,93.6,70,91.7"/>
		<path class="st1" d="M77.7,90.4c0-0.3,0.2-0.6,0.6-0.6c0.3,0,0.6,0.3,0.6,0.6l0,0.5c0.3-0.6,0.8-1.1,1.3-1.1
			c0.4,0,0.6,0.2,0.6,0.6c0,0.3-0.2,0.5-0.5,0.6c-0.8,0.2-1.4,0.8-1.4,2l0,1.5c0,0.3-0.3,0.6-0.6,0.6c-0.3,0-0.6-0.2-0.6-0.6
			L77.7,90.4z"/>
		<path class="st1" d="M81.3,92.4L81.3,92.4c0-1.5,1.1-2.7,2.7-2.7c1.6,0,2.7,1.2,2.7,2.6l0,0c0,1.4-1.1,2.7-2.7,2.7
			C82.4,95,81.3,93.8,81.3,92.4 M85.5,92.4L85.5,92.4c0-0.9-0.7-1.7-1.6-1.6c-0.9,0-1.5,0.7-1.5,1.6l0,0c0,0.9,0.7,1.6,1.6,1.6
			C84.9,94,85.5,93.2,85.5,92.4"/>
		<path class="st1" d="M92.4,94.3c0,0.3-0.3,0.6-0.6,0.6c-0.3,0-0.6-0.2-0.6-0.6l0-0.3c-0.3,0.5-0.8,0.9-1.6,0.9
			c-1.1,0-1.8-0.8-1.8-1.9l0-2.7c0-0.3,0.3-0.6,0.6-0.6c0.3,0,0.6,0.3,0.6,0.6l0,2.4c0,0.8,0.4,1.2,1.1,1.2c0.7,0,1.1-0.5,1.1-1.3
			l0-2.3c0-0.3,0.3-0.6,0.6-0.6c0.3,0,0.6,0.3,0.6,0.6L92.4,94.3z"/>
		<path class="st1" d="M93.8,90.3c0-0.3,0.2-0.6,0.6-0.6c0.3,0,0.6,0.3,0.6,0.6l0,0.3c0.4-0.5,0.9-1,1.7-1c1.2,0,2.4,0.9,2.4,2.6
			l0,0c0,1.7-1.1,2.7-2.3,2.7c-0.8,0-1.4-0.4-1.7-0.9l0,1.8c0,0.3-0.3,0.6-0.6,0.6c-0.3,0-0.6-0.2-0.6-0.6L93.8,90.3z M97.9,92.3
			L97.9,92.3c0-1-0.7-1.6-1.5-1.6c-0.8,0-1.5,0.7-1.5,1.6l0,0c0,1,0.7,1.6,1.5,1.6C97.3,93.9,97.9,93.3,97.9,92.3"/>
		<path class="st1" d="M103.2,90.2c0-0.3,0.2-0.6,0.6-0.6c0.3,0,0.6,0.3,0.6,0.6l0,0.2c0.3-0.5,0.8-0.9,1.5-0.9
			c0.7,0,1.3,0.3,1.5,0.9c0.4-0.5,0.9-0.9,1.7-0.9c1.1,0,1.8,0.7,1.8,1.9l0,2.7c0,0.3-0.2,0.6-0.6,0.6c-0.3,0-0.6-0.2-0.6-0.6l0-2.4
			c0-0.8-0.4-1.2-1-1.2c-0.6,0-1.1,0.5-1.1,1.3l0,2.3c0,0.3-0.3,0.6-0.6,0.6c-0.3,0-0.6-0.2-0.6-0.6l0-2.4c0-0.8-0.4-1.2-1-1.2
			c-0.6,0-1.1,0.5-1.1,1.3l0,2.3c0,0.3-0.3,0.6-0.6,0.6c-0.3,0-0.6-0.2-0.6-0.6L103.2,90.2z"/>
		<path class="st1" d="M114.8,94.8c-1.5,0-2.6-1.1-2.6-2.6l0,0c0-1.5,1-2.7,2.5-2.7c1.6,0,2.4,1.3,2.4,2.5c0,0.3-0.2,0.6-0.5,0.6
			l-3.2,0c0.1,0.8,0.7,1.3,1.5,1.3c0.5,0,0.9-0.2,1.2-0.5c0.1-0.1,0.2-0.1,0.3-0.1c0.3,0,0.5,0.2,0.5,0.5c0,0.1-0.1,0.3-0.2,0.4
			C116.1,94.5,115.5,94.8,114.8,94.8 M115.9,91.7c-0.1-0.8-0.5-1.3-1.3-1.3c-0.7,0-1.2,0.6-1.3,1.4L115.9,91.7z"/>
		<path class="st1" d="M118.2,90.1c0-0.3,0.2-0.6,0.6-0.6c0.3,0,0.6,0.3,0.6,0.6l0,0.2c0.3-0.5,0.8-0.9,1.5-0.9
			c0.7,0,1.3,0.3,1.5,0.9c0.4-0.5,0.9-0.9,1.7-0.9c1.1,0,1.8,0.7,1.8,1.9l0,2.7c0,0.3-0.2,0.6-0.6,0.6c-0.3,0-0.6-0.2-0.6-0.6l0-2.4
			c0-0.8-0.4-1.2-1-1.2c-0.6,0-1.1,0.5-1.1,1.3l0,2.3c0,0.3-0.3,0.6-0.6,0.6c-0.3,0-0.6-0.2-0.6-0.6l0-2.4c0-0.8-0.4-1.2-1-1.2
			c-0.6,0-1.1,0.5-1.1,1.3l0,2.3c0,0.3-0.3,0.6-0.6,0.6c-0.3,0-0.6-0.2-0.6-0.6L118.2,90.1z"/>
		<path class="st1" d="M127.4,88c0-0.3,0.2-0.6,0.6-0.6c0.3,0,0.6,0.2,0.6,0.6l0,2.3c0.4-0.5,0.9-1,1.7-1c1.2,0,2.4,0.9,2.4,2.6l0,0
			c0,1.7-1.1,2.7-2.3,2.7c-0.8,0-1.4-0.4-1.7-0.9l0,0.3c0,0.3-0.3,0.6-0.6,0.6c-0.3,0-0.6-0.3-0.6-0.6L127.4,88z M131.5,92L131.5,92
			c0-1-0.7-1.6-1.5-1.6c-0.8,0-1.5,0.7-1.5,1.6l0,0c0,1,0.7,1.6,1.5,1.6C130.8,93.6,131.5,93,131.5,92"/>
		<path class="st1" d="M136.2,94.6c-1.5,0-2.6-1.1-2.6-2.6l0,0c0-1.5,1-2.7,2.5-2.7c1.6,0,2.4,1.3,2.4,2.5c0,0.3-0.2,0.6-0.5,0.6
			l-3.2,0c0.1,0.8,0.7,1.3,1.5,1.3c0.5,0,0.9-0.2,1.2-0.5c0.1-0.1,0.2-0.1,0.3-0.1c0.3,0,0.5,0.2,0.5,0.5c0,0.1-0.1,0.3-0.1,0.4
			C137.6,94.3,137,94.6,136.2,94.6 M137.4,91.6c-0.1-0.8-0.5-1.3-1.3-1.3c-0.7,0-1.2,0.6-1.3,1.4L137.4,91.6z"/>
		<path class="st1" d="M139.7,89.9c0-0.3,0.2-0.6,0.6-0.6c0.3,0,0.6,0.3,0.6,0.6l0,0.5c0.3-0.6,0.8-1.1,1.3-1.1
			c0.4,0,0.6,0.2,0.6,0.6c0,0.3-0.2,0.5-0.5,0.6c-0.8,0.2-1.4,0.8-1.4,2l0,1.5c0,0.3-0.3,0.6-0.6,0.6c-0.3,0-0.6-0.2-0.6-0.6
			L139.7,89.9z"/>
		<path class="st1" d="M146.3,91.9L146.3,91.9c0-1.5,1.1-2.7,2.7-2.7c1.6,0,2.7,1.2,2.7,2.6l0,0c0,1.4-1.1,2.7-2.7,2.7
			C147.5,94.5,146.3,93.3,146.3,91.9 M150.6,91.9L150.6,91.9c0-0.9-0.7-1.7-1.6-1.6c-0.9,0-1.5,0.7-1.5,1.6l0,0
			c0,0.9,0.7,1.6,1.6,1.6C150,93.5,150.6,92.7,150.6,91.9"/>
		<path class="st1" d="M153.2,90.3l-0.2,0c-0.3,0-0.5-0.2-0.5-0.5c0-0.3,0.2-0.5,0.5-0.5l0.2,0l0-0.4c0-0.6,0.1-1,0.4-1.3
			c0.3-0.3,0.6-0.4,1.1-0.4c0.2,0,0.4,0,0.6,0c0.2,0,0.4,0.2,0.4,0.5c0,0.3-0.2,0.5-0.5,0.5c-0.1,0-0.2,0-0.2,0
			c-0.4,0-0.7,0.2-0.7,0.8l0,0.3l0.9,0c0.3,0,0.5,0.2,0.5,0.5c0,0.3-0.2,0.5-0.5,0.5l-0.9,0l0,3.6c0,0.3-0.3,0.6-0.6,0.6
			c-0.3,0-0.6-0.3-0.6-0.6L153.2,90.3z"/>
		<path class="st1" d="M165.1,88.1c-0.3,0-0.6,0.1-0.7,0.3l-2.1,3.9l-2.1-3.8c-0.1-0.2-0.3-0.3-0.7-0.3c-0.2,0-0.3,0-0.5,0.1
			c-0.1,0.1-0.2,0.2-0.2,0.3c0,0,0,0.1,0,0.1l2.8,5c0.1,0.2,0.4,0.3,0.7,0.3c0.3,0,0.6-0.1,0.7-0.4l2.7-5c0-0.1,0-0.1,0-0.1
			C165.8,88.2,165.5,88.1,165.1,88.1"/>
		<path class="st1" d="M167.6,88.1c-0.5,0-0.7,0.1-0.7,0.4l0,5c0,0.3,0.2,0.4,0.7,0.4c0.5,0,0.7-0.1,0.7-0.4l0-5
			C168.3,88.2,168.1,88.1,167.6,88.1"/>
		<path class="st1" d="M175.7,88c-0.3,0-0.5,0.1-0.7,0.3l-2.1,3.9l-2.1-3.8c-0.1-0.2-0.3-0.3-0.7-0.3c-0.2,0-0.4,0-0.5,0.1
			c-0.1,0.1-0.2,0.2-0.2,0.3c0,0,0,0.1,0,0.1l2.8,5c0.1,0.2,0.4,0.3,0.7,0.3c0.3,0,0.6-0.1,0.7-0.4l2.7-5c0-0.1,0-0.1,0-0.1
			C176.4,88.2,176.1,88,175.7,88"/>
		<path class="st1" d="M182.2,88.4c-0.5-0.3-1.1-0.5-1.7-0.5l-2.3,0c-0.4,0-0.7,0.2-0.7,0.5c0,0.3,0.2,0.5,0.7,0.5l2.3,0
			c0.3,0,0.6,0.1,0.8,0.2c0.2,0.1,0.3,0.3,0.3,0.5l0,0.8l-2.3,0c-0.9,0-1.7,0.3-2.1,0.9c-0.2,0.3-0.3,0.6-0.3,0.9
			c0,0.5,0.2,0.9,0.7,1.2c0.5,0.3,1.1,0.5,1.7,0.5l2.9,0c0.4,0,0.7-0.2,0.7-0.5l0-3.8C182.9,89.2,182.7,88.7,182.2,88.4 M178.6,91.7
			c0.2-0.2,0.5-0.2,0.8-0.2l2.3,0l0,1.5l-2.3,0c-0.3,0-0.6-0.1-0.8-0.2c-0.2-0.1-0.3-0.3-0.3-0.5C178.2,92,178.3,91.8,178.6,91.7"/>
	</g>
	<path class="st2" d="M157.8,71.1c-3.8,0.3-6.1-2.9-6.1-2.9s-7.9-12-9.2-14.1c-3.1-6-8.5-4.6-8.5-4.6l0.1,11.3c0,3,1.9,3.4,2.2,3.7
		c4.2,1.4,7.4-0.1,9.2-0.4c2.5-0.3,1.8,2.8,1.8,2.8s-2.2,2-8.1,3.7c-5.9,1.7-10.8-0.6-10.8-0.6s-5.7-2.5-5.7-7.9
		c0-5.5-0.2-12.4-0.2-12.4l-2.8,0l0.8,1.7l0.1,16.5c0,0-1.2,3.6-5.5,3.6c-4.3,0-5.4-3.5-5.4-3.5l-0.2-13.9c0,0-0.8-4.9-5.6-4.3
		c-4.8,0.6-5.6,2.4-5.6,2.4c0.1,5.5,0.4,6.7,0.1,15.8c0,1.3-1,3.6-5.6,3.7c-4.6,0-5.6-2.6-5.6-2.6s-4.8,2.7-11.1,2.8
		c-6.3,0-10-3.3-10-6.4c-0.2-3.2,2.7-6.1,6.8-7.4c4.2-1.3,14.2-3.8,14.2-3.8s0.9-4.3-6.2-4.3c-5.9,0-8,1.7-10.4,2.8
		c-2.3,1.1-2.8-0.6-2.8-0.6s4.4-7.3,16.4-7.9c10,0.2,12.7,3.6,12.7,3.6s5.9-4.1,11-3.7c6.5-0.2,10.5,3.3,10.5,3.3l14.3-11.9l1.4,0
		L134,44l11.5-0.1c0,0,3.5,0,4.8,2c1.3,2.1,4.6,7.9,5.7,9.8c1.1,2,2.4,1.8,3.9,0c1.4-1.8,10.5-15.1,11.1-15.8c2.1-2.8,6-1.7,8-3.7
		c1.6-1,3.8-4.6,4.8-5.6c0-0.1,0.1-0.1,0.1-0.2L69.2,31.6c-5.3,0-10.5,4.2-10.4,9.4l0.3,38.4l114.5-0.9c5.2,0,10.5-5.3,10.4-10.5
		l-0.3-32.3c-3.7,6-20.6,32.4-20.6,32.4S161.7,70.8,157.8,71.1"/>
	<path class="st2" d="M79.2,66.5c2.7,1.5,8-1.6,8-1.6l-0.1-6.5c0,0-5.9,1.8-8,3C77.1,62.6,76.6,65,79.2,66.5"/>
	<path class="st3" d="M183.7,30.7c0,0.1-0.1,0.1-0.1,0.2c-1,1-3.2,4.6-4.8,5.6c-2,2-5.9,0.8-8,3.7c-0.6,0.7-9.6,14-11.1,15.8
		c-1.4,1.8-2.8,2-3.9,0c-1.1-2-4.4-7.8-5.7-9.8c-1.3-2-4.8-2-4.8-2L134,44l-0.1-8.4l-1.4,0l-14.3,11.9c0,0-4-3.5-10.5-3.3
		c-5.1-0.4-11,3.7-11,3.7s-2.7-3.5-12.7-3.6c-11.9,0.6-16.4,7.9-16.4,7.9s0.5,1.6,2.8,0.6c2.3-1.1,4.5-2.8,10.4-2.8
		c7.1-0.1,6.2,4.3,6.2,4.3s-10.1,2.5-14.2,3.8c-4.2,1.3-7,4.2-6.8,7.4c0,3.1,3.7,6.4,10,6.4c6.3,0,11.1-2.8,11.1-2.8
		s1.1,2.7,5.7,2.6c4.6,0,5.6-2.4,5.6-3.7c0-1.3-0.1-15.8-0.1-15.8s0.7-1.8,5.6-2.4c4.8-0.6,5.6,4.3,5.6,4.3l0.2,13.9
		c0,0,1.1,3.5,5.4,3.5c4.4,0,5.5-3.6,5.5-3.6l-0.1-16.5l-0.8-1.7l2.8,0c0,0,0.1,7,0.2,12.4c0,5.4,5.7,7.9,5.7,7.9s4.9,2.3,10.8,0.6
		c5.9-1.7,8.1-3.7,8.1-3.7s0.6-3.1-1.8-2.8c-1.8,0.3-5,1.7-9.2,0.4c-0.3-0.2-2.2-0.7-2.2-3.7L134,49.6c0,0,5.4-1.4,8.5,4.6
		c1.3,2.1,9.2,14.1,9.2,14.1s2.3,3.1,6.1,2.9c3.8-0.3,5.3-2.8,5.3-2.8s17-26.4,20.6-32.4L183.7,30.7L183.7,30.7z M87.2,64.9
		c0,0-5.3,3.1-8,1.6c-2.7-1.5-2.1-3.9,0-5.1c2.1-1.2,8-3,8-3L87.2,64.9z"/>
</g>
</svg>
