<?xml version="1.0" encoding="UTF-8" standalone="no"?>
<!DOCTYPE svg  PUBLIC '-//W3C//DTD SVG 1.1//EN'  'http://www.w3.org/Graphics/SVG/1.1/DTD/svg11.dtd'>
<svg id="Layer_1" xmlns="http://www.w3.org/2000/svg" xml:space="preserve" height="127px" viewBox="40.5 21.5 242 127" width="242px" version="1.1" y="0px" x="0px" xmlns:xlink="http://www.w3.org/1999/xlink" enable-background="new 40.5 21.5 242 127">
<rect fill-opacity="0" height="127" width="242" y="21.5" x="40.5" fill="#fff"/>
<g fill="#1771B6">
	<path d="m56.169 95.573v-11.885l0.067-0.261c0.119-0.425 0.844-2.641 3.894-4.795 4.002-2.829 10.373-4.325 18.426-4.325 5.595 0 9.171-2.908 12.323-5.469 2.902-2.364 5.644-4.597 9.453-4.597h20.021v4.109h-20.021c-2.345 0-4.335 1.621-6.858 3.666-3.502 2.851-7.862 6.4-14.919 6.4-13.727 0-17.388 4.381-18.182 5.725l-0.097 0.165v7.136l2.795-0.091 0.333 4.177-7.233 0.045z"/>
	<path d="m74.747 100.9c-4.619 0-8.371-3.752-8.371-8.366 0-4.613 3.752-8.371 8.371-8.371 4.613 0 8.366 3.758 8.366 8.371 0.001 4.61-3.752 8.366-8.366 8.366m0-12.639c-2.353 0-4.268 1.916-4.268 4.268s1.915 4.263 4.268 4.263c2.352 0 4.263-1.91 4.263-4.263s-1.911-4.268-4.263-4.268"/>
	<path d="m86.641 95.386v-3.554h13.5c0.324 1.229 0.744 2.42 1.265 3.554h-14.759z"/>
	<path d="m120.35 73.468c-1.406-0.742-2.925-1.116-4.519-1.116-3.74 0-6.743 1.36-8.933 4.052-1.763 2.154-2.653 4.705-2.653 7.578 0 2.863 0.89 5.414 2.653 7.585 2.19 2.687 5.192 4.047 8.939 4.047 1.565 0 3.078-0.363 4.513-1.088v-5.816c-1.19 0.754-2.37 1.134-3.497 1.134-1.588 0-2.925-0.556-3.968-1.65-1.037-1.099-1.569-2.51-1.569-4.212 0-1.694 0.526-3.111 1.569-4.205 1.043-1.1 2.38-1.65 3.961-1.65 1.145 0 2.326 0.385 3.504 1.145 0.01-0.001 0.01-5.804 0.01-5.804z"/>
	<path d="m163.44 78.808c0.946 0 1.892 0.198 2.822 0.589v-6.615c-0.419-0.028-0.78-0.039-1.086-0.039-1.611 0-3.022 0.374-4.189 1.11-0.856 0.55-1.671 1.463-2.425 2.721l-0.699 1.157v-4.671h-6.773v21.8h6.773v-9.267c0-1.361 0.147-2.46 0.438-3.282 0.78-2.325 2.51-3.503 5.14-3.503"/>
	<path d="m194.58 77.708c1.269 0 2.233 0.601 2.868 1.78 0.42 0.787 0.624 2.154 0.624 4.195v10.764h6.767v-14.29c0-1.337-0.119-2.466-0.344-3.349-0.393-1.423-1.214-2.568-2.455-3.402-1.168-0.765-2.529-1.156-4.036-1.156-1.848 0-3.513 0.595-4.954 1.774-0.674 0.544-1.297 1.315-1.853 2.273l-0.317 0.55-0.324-0.544c-0.618-1.025-1.264-1.825-1.932-2.386-1.316-1.088-2.994-1.643-4.989-1.643-1.565 0-3.004 0.374-4.268 1.1-0.704 0.402-1.491 1.054-2.346 1.932l-0.641 0.657v-3.321h-6.773v21.806h6.773v-10.765c0-1.111 0.057-1.995 0.171-2.642 0.112-0.68 0.317-1.23 0.589-1.637 0.721-1.106 1.751-1.667 3.049-1.667 1.406 0 2.466 0.658 3.146 1.956 0.339 0.646 0.506 1.956 0.506 3.991v10.764h6.772v-10.765c0-1.849 0.249-3.175 0.766-4.058 0.73-1.271 1.8-1.917 3.19-1.917"/>
	<path d="m219.01 95.443c2.188 0 4.058-0.277 5.572-0.834 3.599-1.332 5.351-3.945 5.351-7.998v-13.948h-6.774v12.414c0 1.519-0.362 2.665-1.064 3.4-0.755 0.788-1.791 1.191-3.084 1.191-1.315 0-2.358-0.402-3.113-1.191-0.708-0.736-1.064-1.882-1.064-3.4v-12.414h-6.774v13.949c0 2.273 0.584 4.127 1.734 5.504 1.82 2.204 4.92 3.327 9.2 3.327"/>
	<path d="m249.28 92.5l0.68-0.9v3.259h6.768v-31.225l-6.768-0.017v12.271l-0.65-0.714c-0.771-0.856-1.532-1.479-2.246-1.842-1.27-0.652-2.647-0.986-4.086-0.986-2.484 0-4.717 0.896-6.633 2.653-2.414 2.216-3.638 5.22-3.638 8.944 0 3.662 1.195 6.638 3.548 8.854 1.978 1.853 4.262 2.795 6.79 2.795 1.558 0 2.963-0.369 4.177-1.095 0.68-0.414 1.38-1.083 2.06-1.997m-4.3-2.98c-1.615 0-2.948-0.652-3.957-1.95-0.828-1.043-1.253-2.256-1.253-3.598 0-1.35 0.424-2.562 1.253-3.606 1.025-1.298 2.358-1.95 3.957-1.95 1.429 0 2.669 0.538 3.678 1.615 1.008 1.076 1.525 2.397 1.525 3.933 0 1.559-0.51 2.886-1.512 3.952-1 1.066-2.24 1.604-3.69 1.604"/>
	<path d="m264.42 63.696c-2.164 0-3.922 1.876-3.922 4.177s1.759 4.177 3.922 4.177c2.167 0 3.924-1.876 3.924-4.177s-1.75-4.177-3.92-4.177"/>
	<path d="m264.41 76.677c-1.134 0-2.216-0.323-3.174-0.93v20.003h6.382l-0.005-20.02c-0.96 0.617-2.06 0.947-3.21 0.947"/>
	<path d="m147.45 94.86v-21.8h-6.773v2.807l-0.652-0.714c-0.771-0.856-1.525-1.475-2.246-1.843-1.264-0.634-2.641-0.957-4.086-0.957-2.484 0-4.716 0.89-6.632 2.653-2.414 2.211-3.639 5.226-3.639 8.944 0 3.656 1.198 6.637 3.554 8.849 1.979 1.859 4.263 2.795 6.786 2.795 1.558 0 2.969-0.363 4.182-1.095 0.686-0.408 1.377-1.082 2.058-1.996l0.674-0.9v3.259l6.78-0.002zm-8.06-6.978c-0.998 1.06-2.24 1.598-3.69 1.598-1.609 0-2.941-0.658-3.956-1.939-0.827-1.043-1.247-2.244-1.247-3.582 0-1.337 0.419-2.538 1.247-3.582 1.032-1.287 2.363-1.939 3.956-1.939 1.435 0 2.676 0.545 3.686 1.61 1.008 1.072 1.518 2.38 1.518 3.91-0.01 1.544-0.52 2.864-1.52 3.924"/>
		<path d="m211.85 116.33c0-0.289 0.096-0.533 0.295-0.738 0.197-0.203 0.442-0.305 0.731-0.305 0.282 0 0.528 0.102 0.725 0.305 0.198 0.205 0.294 0.448 0.294 0.738 0 0.277-0.096 0.516-0.294 0.714-0.197 0.193-0.443 0.295-0.725 0.295-0.289 0-0.534-0.102-0.731-0.295-0.21-0.17-0.3-0.41-0.3-0.69z"/>
		<path d="m227 108.53c-0.533-0.454-1.089-0.788-1.672-1.009-0.59-0.226-1.208-0.34-1.849-0.34-1.257 0-2.273 0.402-3.055 1.208-0.788 0.8-1.179 1.842-1.179 3.123 0 1.231 0.381 2.25 1.145 3.055 0.766 0.805 1.729 1.201 2.892 1.201 0.674 0 1.325-0.119 1.938-0.357s1.197-0.601 1.761-1.088v2.109c-0.498 0.357-1.048 0.63-1.637 0.799-0.59 0.181-1.224 0.273-1.916 0.273-0.872 0-1.683-0.148-2.43-0.437-0.738-0.284-1.396-0.708-1.956-1.265-0.562-0.55-0.986-1.191-1.286-1.939-0.302-0.736-0.454-1.53-0.454-2.369 0-0.844 0.152-1.626 0.454-2.368 0.299-0.738 0.731-1.383 1.303-1.945 0.568-0.561 1.22-0.986 1.955-1.281 0.732-0.289 1.532-0.431 2.386-0.431 0.676 0 1.31 0.096 1.922 0.295 0.612 0.193 1.201 0.488 1.773 0.884l-0.06 1.91z"/>
		<path d="m242.16 111.5c0 0.811-0.152 1.582-0.459 2.307-0.301 0.72-0.747 1.373-1.331 1.939-0.59 0.567-1.253 1.003-1.996 1.304-0.741 0.306-1.519 0.46-2.329 0.46-0.827 0-1.609-0.159-2.364-0.46-0.741-0.306-1.405-0.743-1.979-1.304-0.589-0.566-1.024-1.213-1.331-1.933-0.299-0.719-0.453-1.49-0.453-2.312s0.153-1.593 0.453-2.318c0.307-0.725 0.742-1.377 1.331-1.949 0.585-0.567 1.249-0.998 1.99-1.293 0.737-0.301 1.526-0.448 2.353-0.448 0.822 0 1.603 0.147 2.34 0.448 0.738 0.295 1.4 0.726 1.985 1.293 0.584 0.578 1.03 1.235 1.331 1.961 0.32 0.71 0.47 1.48 0.47 2.3zm-1.93 0c0-0.578-0.109-1.133-0.318-1.655-0.216-0.522-0.516-0.98-0.912-1.389-0.386-0.402-0.833-0.714-1.345-0.93-0.51-0.215-1.042-0.323-1.603-0.323-0.566 0-1.1 0.108-1.609 0.323-0.506 0.209-0.958 0.522-1.356 0.93-0.394 0.397-0.701 0.862-0.906 1.383-0.209 0.522-0.312 1.072-0.312 1.661 0 0.578 0.102 1.122 0.312 1.638 0.205 0.516 0.512 0.98 0.906 1.389 0.398 0.408 0.846 0.72 1.35 0.93 0.51 0.216 1.043 0.317 1.615 0.317 0.555 0 1.089-0.101 1.588-0.317 0.509-0.209 0.957-0.522 1.36-0.93 0.395-0.409 0.696-0.873 0.912-1.389 0.2-0.52 0.31-1.06 0.31-1.63z"/>
		<path d="m245.58 116.33c0-0.289 0.102-0.533 0.301-0.738 0.198-0.203 0.437-0.305 0.726-0.305s0.533 0.102 0.731 0.305c0.199 0.205 0.294 0.448 0.294 0.738 0 0.277-0.095 0.516-0.294 0.714-0.198 0.193-0.442 0.295-0.731 0.295s-0.528-0.102-0.726-0.295c-0.2-0.17-0.3-0.41-0.3-0.69z"/>
		<path d="m251.57 117.19v-11.449h1.859v11.449h-1.86z"/>
		<path d="m257.31 117.19v-11.449h2.511c1.627 0 2.782 0.085 3.447 0.243 0.662 0.17 1.247 0.442 1.744 0.828 0.665 0.51 1.168 1.156 1.508 1.95 0.341 0.793 0.51 1.701 0.51 2.715 0 1.015-0.169 1.916-0.51 2.703-0.341 0.783-0.843 1.429-1.508 1.944-0.498 0.386-1.065 0.658-1.711 0.822-0.636 0.164-1.627 0.243-2.982 0.243h-3.009zm1.86-1.68h1.565c0.862 0 1.508-0.057 1.938-0.17 0.432-0.119 0.806-0.311 1.124-0.584 0.43-0.369 0.752-0.828 0.974-1.377 0.216-0.55 0.322-1.191 0.322-1.922 0-0.73-0.106-1.371-0.322-1.922-0.222-0.55-0.544-1.008-0.974-1.383-0.329-0.272-0.715-0.459-1.163-0.572-0.453-0.119-1.157-0.175-2.12-0.175h-1.344v8.09z"/>
		<path d="m125.15 68.511c-1.099 0-1.979-0.808-2.024-1.91h1.208c0.046 0.47 0.329 0.833 0.827 0.833 0.442 0 0.857-0.312 0.857-0.784 0-0.706-0.641-0.84-1.187-1.051-0.191-0.074-0.379-0.142-0.565-0.235-0.63-0.329-0.913-0.842-0.913-1.556 0-1.026 0.805-1.775 1.825-1.775 1.009 0 1.791 0.766 1.843 1.775h-1.18c-0.034-0.42-0.261-0.698-0.696-0.698-0.363 0-0.64 0.261-0.64 0.629 0 0.598 0.572 0.718 1.036 0.867 0.94 0.313 1.633 0.825 1.633 1.92-0.02 1.177-0.88 1.985-2.04 1.985z"/>
		<path d="m127.85 63.183v-1.026h1.123v1.026h-1.12zm0 5.201v-4.67h1.123v4.67h-1.12z"/>
		<path d="m131.27 64.708v3.676h-1.122v-3.676h-0.544v-0.994h0.544v-1.556h1.122v1.556h0.674v0.994h-0.67z"/>
		<path d="m135.5 68.384v-0.471h-0.016c-0.311 0.428-0.662 0.622-1.201 0.622-0.595 0-1.219-0.235-1.565-0.74-0.323-0.462-0.347-1.059-0.347-1.607v-2.473h1.117v2.38c0 0.675 0.137 1.414 0.982 1.414 0.77 0 0.942-0.782 0.942-1.406v-2.388h1.117v4.67l-1.03-0.001z"/>
		<path d="m138.92 68.534c-0.522 0-1.07-0.201-1.4-0.612-0.243-0.312-0.317-0.624-0.351-1.012h1.145c0.073 0.337 0.228 0.598 0.612 0.598 0.272 0 0.504-0.185 0.504-0.47 0-0.085-0.016-0.168-0.067-0.244-0.149-0.21-0.748-0.371-0.98-0.454-0.624-0.221-1.043-0.649-1.043-1.337 0-0.851 0.748-1.449 1.565-1.449 0.814 0 1.485 0.615 1.518 1.431h-1.093c-0.046-0.245-0.193-0.406-0.443-0.406-0.238 0-0.43 0.17-0.43 0.406 0 0.243 0.192 0.308 0.386 0.385 0.136 0.051 0.272 0.093 0.408 0.136 0.718 0.227 1.304 0.53 1.304 1.397-0.01 0.925-0.72 1.631-1.64 1.631z"/>
		<path d="m145.52 68.367c-0.222 0.093-0.466 0.144-0.698 0.144-0.986 0-1.575-0.657-1.728-1.593h1.161c0.069 0.295 0.227 0.516 0.55 0.516 0.426 0 0.562-0.37 0.562-0.743v-4.533h1.151v4.461c0.01 0.756-0.26 1.445-0.99 1.748z"/>
		<path d="m150.67 68.384v-0.471h-0.017c-0.312 0.428-0.664 0.622-1.201 0.622-0.595 0-1.218-0.235-1.565-0.74-0.323-0.462-0.345-1.059-0.345-1.607v-2.473h1.116v2.38c0 0.675 0.136 1.414 0.98 1.414 0.771 0 0.94-0.782 0.94-1.406v-2.388h1.116v4.67l-1.03-0.001z"/>
		<path d="m156.31 68.384v-0.581c-0.374 0.44-1.059 0.731-1.633 0.731-1.405 0-2.273-1.185-2.273-2.514 0-1.337 0.959-2.466 2.336-2.466 0.516 0 1.003 0.209 1.383 0.556 0.05 0.051 0.125 0.125 0.169 0.193h0.016v-0.59h1.025v4.67l-1.03 0.001zm-1.4-3.803c-0.832 0-1.389 0.691-1.389 1.491 0 0.783 0.59 1.437 1.389 1.437 0.833 0 1.366-0.672 1.366-1.471 0-0.8-0.54-1.457-1.37-1.457z"/>
		<path d="m158.19 68.384v-6.227h1.116v6.227h-1.12z"/>
		<path d="m165.98 68.013c-0.447 0.303-1.075 0.371-1.608 0.371h-1.667v-6.226h1.349c0.635 0 1.291 0.025 1.797 0.48 0.323 0.277 0.533 0.742 0.533 1.161 0 0.538-0.237 0.926-0.698 1.188 0.721 0.261 1.066 0.774 1.066 1.547 0.01 0.606-0.27 1.145-0.77 1.479zm-1.64-4.778h-0.476v1.346h0.436c0.443 0 0.929-0.125 0.929-0.672 0-0.521-0.44-0.674-0.89-0.674zm0.13 2.423h-0.6v1.649h0.578c0.543 0 1.161-0.141 1.161-0.816 0-0.631-0.6-0.833-1.14-0.833z"/>
		<path d="m172.07 66.55h-3.627c0.027 0.125 0.085 0.235 0.152 0.337 0.249 0.386 0.674 0.622 1.134 0.622 0.453 0 0.851-0.185 1.078-0.598h1.178c-0.301 0.951-1.264 1.623-2.256 1.623-1.395 0-2.466-1.086-2.466-2.472 0-1.396 1.043-2.508 2.46-2.508 1.36 0 2.415 1.077 2.415 2.432 0.02 0.184-0.01 0.38-0.05 0.564zm-2.34-1.969c-0.681 0-1.161 0.406-1.321 1.068h2.585c-0.11-0.672-0.59-1.068-1.27-1.068z"/>
		<path d="m172.86 68.384v-6.227h1.115v6.227h-1.12z"/>
		<path d="m174.87 63.183v-1.026h1.122v1.026h-1.12zm0 5.201v-4.67h1.122v4.67h-1.12z"/>
		<path d="m182.67 68.384l-1.944-2.735h-0.017v2.735h-1.151v-6.227h1.151v2.693h0.017l1.944-2.693h1.355l-2.345 3.063 2.345 3.163c0 0.001-1.35 0.001-1.35 0.001z"/>
		<path d="m188.68 66.55h-3.628c0.03 0.125 0.086 0.235 0.155 0.337 0.248 0.386 0.674 0.622 1.133 0.622 0.453 0 0.85-0.185 1.076-0.598h1.181c-0.301 0.951-1.265 1.623-2.257 1.623-1.395 0-2.465-1.086-2.465-2.472 0-1.396 1.042-2.508 2.459-2.508 1.361 0 2.415 1.077 2.415 2.432 0 0.184-0.02 0.38-0.06 0.564zm-2.35-1.969c-0.68 0-1.163 0.406-1.321 1.068h2.585c-0.11-0.672-0.58-1.068-1.27-1.068z"/>
		<path d="m192.48 68.384v-2.304c0-0.649-0.109-1.499-0.94-1.499-0.295 0-0.596 0.17-0.767 0.414-0.203 0.294-0.203 0.825-0.203 1.168v2.222h-1.117v-4.67h1.032v0.405c0.374-0.362 0.742-0.564 1.281-0.564 0.516 0 1.076 0.253 1.405 0.649 0.363 0.437 0.432 1.044 0.432 1.59v2.59c0.02-0.001-1.11-0.001-1.11-0.001z"/>
		<path d="m198.23 68.384v-0.573h-0.016c-0.312 0.496-0.918 0.723-1.491 0.723-1.36 0-2.38-1.151-2.38-2.48 0-1.004 0.539-1.884 1.467-2.298 0.283-0.125 0.596-0.201 0.913-0.201 0.572 0 1.019 0.15 1.416 0.573v-1.97h1.119v6.227h-1.03zm-1.39-3.803c-0.76 0-1.376 0.691-1.376 1.431 0 0.774 0.56 1.497 1.376 1.497 0.794 0 1.384-0.698 1.384-1.463s-0.58-1.465-1.38-1.465z"/>
		<path d="m203.75 68.384v-0.581c-0.374 0.44-1.06 0.731-1.633 0.731-1.405 0-2.273-1.185-2.273-2.514 0-1.337 0.959-2.466 2.336-2.466 0.516 0 1.003 0.209 1.383 0.556 0.053 0.051 0.125 0.125 0.169 0.193h0.019v-0.59h1.026v4.67l-1.04 0.001zm-1.4-3.803c-0.834 0-1.389 0.691-1.389 1.491 0 0.783 0.588 1.437 1.389 1.437 0.832 0 1.366-0.672 1.366-1.471 0-0.8-0.54-1.457-1.37-1.457z"/>
		<path d="m206.83 65.76v2.625h-1.118v-4.67h1.026v0.414h0.016c0.313-0.454 0.54-0.573 1.094-0.573v1.085c-0.73 0.025-1.02 0.436-1.02 1.119z"/>
		<path d="m211.78 68.384v-0.581c-0.373 0.44-1.059 0.731-1.632 0.731-1.406 0-2.273-1.185-2.273-2.514 0-1.337 0.958-2.466 2.336-2.466 0.516 0 1.003 0.209 1.383 0.556 0.051 0.051 0.125 0.125 0.171 0.193h0.016v-0.59h1.026v4.67l-1.04 0.001zm-1.4-3.803c-0.834 0-1.389 0.691-1.389 1.491 0 0.783 0.59 1.437 1.389 1.437 0.833 0 1.365-0.672 1.365-1.471 0.01-0.8-0.53-1.457-1.36-1.457z"/>
		<path d="m217.34 68.384v-0.581c-0.374 0.44-1.062 0.731-1.633 0.731-1.406 0-2.273-1.185-2.273-2.514 0-1.337 0.957-2.466 2.335-2.466 0.515 0 1.003 0.209 1.382 0.556 0.053 0.051 0.125 0.125 0.171 0.193h0.017v-0.59h1.025v4.67l-1.04 0.001zm-1.4-3.803c-0.832 0-1.387 0.691-1.387 1.491 0 0.783 0.589 1.437 1.387 1.437 0.834 0 1.369-0.672 1.369-1.471 0-0.8-0.54-1.457-1.37-1.457z"/>
		<path d="m222.26 68.384v-2.304c0-0.649-0.113-1.499-0.94-1.499-0.294 0-0.602 0.17-0.771 0.414-0.198 0.294-0.198 0.825-0.198 1.168v2.222h-1.122v-4.67h1.038v0.405c0.369-0.362 0.742-0.564 1.281-0.564 0.51 0 1.076 0.253 1.406 0.649 0.357 0.437 0.424 1.044 0.424 1.59v2.59c0-0.001-1.12-0.001-1.12-0.001z"/>
		<path d="m230.55 68.384l-2.602-4.525h-0.017v4.525h-1.151v-6.227h1.309l2.572 4.526h0.019v-4.526h1.157v6.227h-1.29z"/>
		<path d="m235.12 68.534c-1.361 0-2.489-1.117-2.489-2.48 0-1.371 1.112-2.5 2.489-2.5 1.383 0 2.476 1.112 2.476 2.482 0 1.413-1.06 2.498-2.48 2.498zm0-3.953c-0.787 0-1.373 0.714-1.373 1.473 0 0.782 0.566 1.454 1.373 1.454 0.794 0 1.354-0.68 1.354-1.446 0.01-0.75-0.55-1.481-1.35-1.481z"/>
		<path d="m238.44 68.384v-1.12h1.117v1.12h-1.12z"/>
		<path d="m244.47 68.384v-5.166h-0.782v-1.06h1.905v6.227h-1.13z"/>
</g>
</svg>
