<?xml version="1.0" encoding="UTF-8" standalone="no"?>
<!DOCTYPE svg  PUBLIC '-//W3C//DTD SVG 1.1//EN'  'http://www.w3.org/Graphics/SVG/1.1/DTD/svg11.dtd'>
<svg id="Layer_1" xmlns="http://www.w3.org/2000/svg" xml:space="preserve" height="127px" viewBox="40.5 21.5 242 127" width="242px" version="1.1" y="0px" x="0px" xmlns:xlink="http://www.w3.org/1999/xlink" enable-background="new 40.5 21.5 242 127">
<rect fill-opacity="0" height="127" width="242" y="21.5" x="40.5" fill="#fff"/>
	<path d="m92.404 58.456s-3.488-1.263-7.155-1.684c-3.668-0.421-9.381 0.06-9.381 0.06s-8.057 5.231-10.222 11.124c-2.165 5.893-2.044 12.688 1.984 18.159 4.029 5.471 9.2 6.432 12.447 6.675 3.811 0.285 8.599-1.022 8.599-1.022s-5.412 0.662-12.026-3.067c-6.614-3.729-6.855-10.163-4.69-15.514 2.164-5.351 8.839-10.342 13.469-12.327 4.629-1.984 6.975-2.404 6.975-2.404z" fill="#2E74BB"/>
	<path d="m62.956 68.241s-4.15 3.778-5.512 8.485-1.487 6.131-1.548 7.927-0.062 2.91-0.062 2.91 3.344 8.485 11.89 11.643 17.092 1.672 22.79-2.787c5.697-4.459 9.343-10.682 7.741-16.659-1.532-5.717-7.958-3.747-9.351-2.725-0.967 0.71-0.991 0.867-0.991 0.867s5.264-2.477 7.493 0.372c2.23 2.848 0.62 7.865-1.61 10.59s-7.741 6.317-17.278 5.078c-9.537-1.238-14.392-10.853-14.863-15.978-0.557-6.068 1.301-9.723 1.301-9.723z" fill="#2E74BB"/>
	<g fill="#2E74BB">
		<path d="m107.02 65.137s-0.076 0.531-0.379 1.365-0.834 1.175-0.834 1.175 0 0 0.152-0.721c0.152-0.721-0.152-1.593-0.152-1.593s-0.493 2.086-1.972 3.034c-1.479 0.948-6.561 2.048-9.178 2.693-1.8 0.443-2.003 1.568-1.955 2.227-0.261 0.033-0.523 0.073-0.786 0.125-3.757 0.743-4.717 4.525-4.717 4.525s2.51-2.708 5.751-2.786c2.291-0.055 6.865 1.382 6.541 8.109-0.33 6.876-3.158 10.713-7.679 14.243s-10.033 5.573-19.198 5.14-13.129-5.139-13.129-5.139 0.495 0.991 2.23 2.973 3.716 4.459 9.351 6.565c5.635 2.105 13.315 2.725 21.985-2.292s10.342-15.647 10.342-15.647c0.537-3.963 0.578-8.794-1.816-12.015-1.785-2.4-4.189-3.675-6.853-3.862 0.022-0.2 0.077-0.425 0.198-0.649 0.38-0.701 2.389-0.872 4.665-1.251 2.275-0.379 5.803-1.175 7.054-2.882 1.25-1.696 0.38-3.327 0.38-3.327z"/>
		<path d="m100.79 72.95c0.986-0.644 1.603-0.716 1.603-0.716s-1.273-0.573-3.055 0.034c-1.782 0.607-1.874 0.834-1.874 0.834s0.502 0.09 1.1 0.531c0.606 0.446 0.569 0.493 0.569 0.493s0.674-0.532 1.66-1.176z"/>
	</g>
	<path d="m129.03 100.13c-1.082 1.305-2.308 2.267-3.675 2.887-1.368 0.62-2.848 0.931-4.439 0.931-1.687 0-3.245-0.287-4.677-0.859s-2.657-1.376-3.675-2.41c-1.019-1.034-1.814-2.259-2.386-3.675-0.572-1.415-0.859-2.966-0.859-4.653 0-1.686 0.287-3.238 0.859-4.653s1.367-2.64 2.386-3.675c1.018-1.034 2.243-1.837 3.675-2.41 1.432-0.572 2.99-0.859 4.677-0.859 1.623 0 3.126 0.334 4.51 1.002s2.616 1.607 3.699 2.816l-2.291 1.718c-0.827-0.923-1.734-1.647-2.721-2.172s-2.052-0.788-3.198-0.788c-1.336 0-2.546 0.239-3.627 0.716-1.082 0.477-2.004 1.121-2.768 1.933s-1.344 1.766-1.742 2.863-0.596 2.267-0.596 3.508 0.199 2.41 0.596 3.508 0.978 2.052 1.742 2.864c0.764 0.811 1.686 1.455 2.768 1.933 1.081 0.477 2.291 0.716 3.627 0.716 1.209 0 2.315-0.278 3.317-0.836 1.002-0.556 1.869-1.296 2.602-2.219l2.19 1.809z"/>
	<path d="m153.94 99.22c-1.114 1.687-2.49 2.896-4.128 3.627-1.639 0.731-3.445 1.097-5.417 1.097-1.686 0-3.214-0.287-4.582-0.859s-2.546-1.376-3.532-2.41-1.742-2.259-2.267-3.675c-0.525-1.415-0.788-2.983-0.788-4.701 0-1.654 0.27-3.181 0.812-4.582 0.541-1.4 1.304-2.616 2.291-3.651 0.986-1.034 2.148-1.844 3.484-2.434 1.336-0.588 2.816-0.883 4.439-0.883 1.686 0 3.174 0.295 4.463 0.883 1.289 0.589 2.37 1.368 3.245 2.339s1.535 2.076 1.98 3.317c0.446 1.241 0.668 2.498 0.668 3.77v2.004h-18.518c0 0.605 0.119 1.377 0.358 2.315 0.239 0.939 0.676 1.854 1.313 2.744 0.636 0.891 1.487 1.655 2.553 2.291 1.066 0.637 2.442 0.955 4.128 0.955 1.463 0 2.879-0.35 4.247-1.05 1.367-0.7 2.418-1.654 3.15-2.864l2.12 1.754zm-2.2-8.734c0-0.986-0.2-1.909-0.596-2.768-0.398-0.859-0.939-1.614-1.623-2.267-0.685-0.652-1.496-1.169-2.434-1.551-0.939-0.382-1.933-0.572-2.983-0.572-1.56 0-2.856 0.318-3.889 0.954-1.034 0.637-1.854 1.368-2.458 2.196s-1.034 1.631-1.289 2.41c-0.255 0.78-0.382 1.313-0.382 1.599l15.65-0.001z"/>
	<path d="m161.96 87.527c0-0.413-0.017-0.914-0.048-1.503-0.032-0.588-0.055-1.185-0.071-1.79-0.017-0.604-0.04-1.169-0.071-1.695-0.032-0.525-0.048-0.931-0.048-1.217h2.863c0.031 0.827 0.055 1.623 0.071 2.386s0.055 1.257 0.119 1.479c0.731-1.304 1.671-2.37 2.816-3.198 1.145-0.827 2.545-1.241 4.2-1.241 0.287 0 0.565 0.024 0.836 0.071 0.27 0.048 0.548 0.104 0.835 0.167l-0.334 2.816c-0.382-0.127-0.748-0.19-1.097-0.19-1.241 0-2.315 0.199-3.221 0.596-0.907 0.398-1.655 0.947-2.243 1.647-0.589 0.7-1.026 1.52-1.313 2.457-0.287 0.939-0.43 1.95-0.43 3.031v12.027h-2.863l-0.01-15.843z"/>
	<path d="m178.8 87.527c0-0.413-0.017-0.914-0.048-1.503-0.032-0.588-0.056-1.185-0.071-1.79-0.017-0.604-0.041-1.169-0.071-1.695-0.032-0.525-0.048-0.931-0.048-1.217h2.863c0.031 0.827 0.055 1.623 0.071 2.386 0.016 0.764 0.055 1.257 0.119 1.479h0.143c0.572-1.209 1.527-2.25 2.863-3.126 1.336-0.875 2.895-1.313 4.677-1.313 1.463 0 2.799 0.374 4.009 1.121 1.209 0.748 2.084 1.965 2.625 3.651 0.699-1.654 1.742-2.864 3.126-3.627 1.384-0.764 2.84-1.145 4.367-1.145 1.718 0 3.118 0.271 4.2 0.812 1.082 0.542 1.933 1.249 2.553 2.124s1.05 1.885 1.289 3.031c0.239 1.145 0.358 2.323 0.358 3.532v13.124h-2.863v-12.98c0-0.89-0.079-1.758-0.239-2.601s-0.438-1.599-0.836-2.267-0.954-1.201-1.671-1.599c-0.716-0.398-1.647-0.596-2.792-0.596-1.336 0-2.434 0.247-3.293 0.74-0.859 0.494-1.536 1.121-2.028 1.885-0.494 0.764-0.843 1.592-1.05 2.481-0.207 0.891-0.31 1.734-0.31 2.529v12.409h-2.863v-13.265c0-2.036-0.374-3.675-1.121-4.916-0.748-1.241-1.902-1.861-3.46-1.861-1.05 0-2.045 0.183-2.983 0.548-0.939 0.366-1.75 0.923-2.434 1.671-0.685 0.748-1.225 1.687-1.623 2.816-0.398 1.13-0.596 2.458-0.596 3.986v11.025h-2.863l-0.01-15.843z"/>
	<path d="m263.52 81.323h2.863v22.05h-2.863v-22.047z"/>
	<path d="m263.52 71.426h2.863v4.169h-2.863v-4.169z"/>
	<path d="m238.62 99.038v-10.965s0.372-6.616-5.483-8.224c-7.944-2.182-12.868 2.462-12.868 2.462l1.063 1.902s4.364-3.412 9.231-2.63c4.867 0.784 5.203 4.643 5.203 5.482v3.256c-1.967-0.81-6.758-2.308-12.14-0.514-7.049 2.35-5.37 9.791-2.405 11.916 2.965 2.126 7.049 2.293 10.685 0.672 2.191-0.977 3.589-2.726 4.355-3.961l0.065 0.046v2.238s-0.224 1.287 0.784 1.958c1.007 0.672 2.742 0.447 2.742 0.447v-2.797c0.01 0-1.22-0.22-1.22-1.282zm-2.85-2.63s-2.126 4.923-8.224 4.588-6.266-4.811-5.595-6.769 3.357-3.58 7.608-3.469c3.929 0.104 6.21 1.399 6.21 1.399v4.247z"/>
	<path d="m256.04 99.645s-1.424 1.186-4.112 1.266c-2.688 0.079-2.452-3.084-2.452-3.084v-15.794h5.649v-2.519h-5.649v-8.176h-3.005v8.176h-3.402v2.519h3.402v16.269 0.553c0 0.553-0.189 3.906 3.558 4.428 3.876 0.54 6.643-1.107 6.643-1.107l-0.64-2.525z"/>
</svg>
