<?xml version="1.0" encoding="UTF-8" standalone="no"?>
<!DOCTYPE svg  PUBLIC '-//W3C//DTD SVG 1.1//EN'  'http://www.w3.org/Graphics/SVG/1.1/DTD/svg11.dtd'>
<svg id="Layer_1" xmlns="http://www.w3.org/2000/svg" xml:space="preserve" height="127px" viewBox="40.5 21.5 242 127" width="242px" version="1.1" y="0px" x="0px" xmlns:xlink="http://www.w3.org/1999/xlink" enable-background="new 40.5 21.5 242 127">
<rect fill-opacity="0" height="127" width="242" y="21.5" x="40.5" fill="#fff"/>
<path id="XMLID_395_" d="m219.36 53.772c-6.601-0.544-22.91 1.225-41.605 5.795-1.352 0.264-2.787 0.711-4.229 1.08v0.007c-15.424 4.122-35.766 11.743-38.643 12.803 3.903-4.315 32.331-27.03 68.458-32.704l0.019-9.378c-1.185 0.265-12.47 1.233-29.792 8.241v0.009c-26.821 11.955-44.505 25.11-54.14 40.04-4.249 1.883-14.821 6.919-23.219 11.237-11.573 5.925-17.794 9.615-21.505 12.054 14.301-6.675 22.794-11.034 41.776-17.39-4.321 8.049-3.706 18.536 5.496 25.325 0.178 0.183 0.447 0.374 0.719 0.447 9.192 5.441 21.204 2.849 31.407 0.25 20.271-5.158 50.202-20.118 67.838-35.959 5.555-4.997 8.021-9.358 8.41-13.252 0.38-3.905-0.69-7.755-11.01-8.617m-0.37 14.718c-5.428 5.32-14.641 10.164-15.721 10.713l0.022-11.01s-10.674 6.109-22.773 12.226c-2.334 1.252-4.671 2.409-6.995 3.494-5.221 2.432-11.311 5.02-18.025 7.105-11.374 3.5-31.493 6.618-31.018-1.579 0.097-2.073 3.339-8.433 6.403-10.473 11.41-4.11 26.913-9.64 42.638-13.836v0.025c14.974-4.131 30.319-7.167 42.679-7.232 8.4 0.017 8.48 5.07 2.79 10.567" fill="#028066"/>
<g fill="#003E7E">
	<path d="m180.32 118.42c-0.512 0-0.837 0.09-0.977 0.271-0.14 0.18-0.228 0.391-0.265 0.632v4.389l1.095 0.036c1.51 0 2.264-0.777 2.264-2.33 0-0.939-0.186-1.674-0.557-2.204-0.37-0.54-0.89-0.8-1.56-0.8z"/>
	<path d="m109.24 113.66l-0.038 18.677 94.025 0.188 0.037-18.677-94.02-0.19zm17.18 13.03l-0.193 0.686-0.214 1.029-0.15 1.2-0.128 0.857-0.086 0.3c-0.014 0.057-0.072 0.093-0.171 0.107l-0.343 0.022c-0.157 0-0.265-0.029-0.321-0.086l-0.171-0.364-0.172-0.707-1.393 0.643-1.157 0.343-1.286 0.236-1.2 0.086c-2.186 0-3.972-0.747-5.358-2.24s-2.079-3.404-2.079-5.733c0-2.229 0.736-4.1 2.207-5.615 1.471-1.514 3.3-2.272 5.486-2.272 0.686 0 1.339 0.089 1.961 0.268 0.621 0.179 1.203 0.447 1.746 0.804l0.471 0.3c0.129 0.086 0.257 0.143 0.386 0.171l0.043-0.043c0.171 0 0.3-0.154 0.386-0.464l0.064-0.64c0.043-0.265 0.185-0.397 0.429-0.397 0.3 0 0.45 0.122 0.45 0.367v0.238l0.021 0.842c0 0.72 0.043 1.353 0.129 1.9l0.171 1.079 0.128 0.928 0.043 0.151c0 0.317-0.193 0.475-0.579 0.475-0.186 0-0.329-0.1-0.429-0.3l-0.429-1.136c-0.414-1.043-1.054-1.9-1.918-2.572-0.865-0.671-1.768-1.007-2.711-1.007-0.429 0-0.839 0.064-1.232 0.193s-0.807 0.383-1.243 0.762-0.818 1.102-1.147 2.168c-0.329 1.066-0.493 2.279-0.493 3.638 0 1.989 0.232 3.459 0.696 4.411s1.039 1.642 1.725 2.071 1.393 0.644 2.122 0.644c0.857 0 1.707-0.24 2.55-0.722 0.843-0.481 1.471-1.103 1.886-1.864l0.536-0.948c0.1-0.172 0.25-0.273 0.45-0.302 0.343 0 0.521 0.115 0.536 0.343l-0.05 0.14zm18.99-2.79c-1.06 0.715-2.457 1.072-4.191 1.072h-1.156v3.324c0 0.686 0.012 1.054 0.036 1.102 0 0.229 0.066 0.415 0.199 0.56 0.192 0.169 0.542 0.253 1.048 0.253 0.301 0 0.506 0.021 0.614 0.062 0.109 0.041 0.163 0.138 0.163 0.29 0 0.247-0.102 0.37-0.307 0.37l-1.572-0.132-1.21-0.034-1.066-0.033-1.174 0.04-1.608 0.159c-0.196 0-0.291-0.098-0.31-0.27 0 0.012 0.003 0.017 0.003 0.029 0 0.148-0.084 0.228-0.253 0.241l-1.084-0.099-1.445-0.06-1.084-0.04-1.897 0.075-1.102 0.124c-0.18 0-0.283-0.098-0.307-0.292 0-0.247 0.096-0.377 0.289-0.39l0.578-0.059c0.482 0 0.795-0.127 0.939-0.38 0.145-0.253 0.217-0.791 0.217-1.612v-8.206c0-0.507-0.018-0.851-0.055-1.033-0.036-0.181-0.128-0.326-0.273-0.435l-0.346-0.181-0.62-0.036c-0.304 0-0.498-0.018-0.583-0.054s-0.134-0.121-0.146-0.254c0-0.29 0.09-0.435 0.272-0.435l1.648 0.126 1.576 0.036 1.412-0.036 0.924-0.054 1.086-0.072c0.205 0 0.308 0.136 0.308 0.408 0 0.185-0.092 0.278-0.276 0.278l-0.589 0.072c-0.184 0.024-0.371 0.066-0.561 0.126s-0.328 0.138-0.413 0.235c-0.086 0.096-0.16 0.253-0.221 0.469v10.209c0.036 0.24 0.132 0.451 0.289 0.631 0.168 0.145 0.494 0.216 0.976 0.216 0.337 0 0.544 0.022 0.623 0.065 0.06 0.033 0.089 0.139 0.104 0.284 0.005-0.108 0.02-0.187 0.05-0.219l0.111-0.056c0.061-0.012 0.098-0.025 0.11-0.037l0.607-0.056c0.258 0 0.453-0.027 0.588-0.081s0.239-0.117 0.312-0.19c0.147-0.144 0.239-0.355 0.276-0.632v-10.061c0-0.217-0.062-0.397-0.186-0.542s-0.281-0.223-0.47-0.235l-0.656-0.036c-0.284 0-0.491-0.048-0.621-0.144l-0.053-0.091v-0.163c0-0.277 0.114-0.415 0.343-0.415l0.524 0.054c0.434 0.048 0.843 0.084 1.228 0.108s0.801 0.036 1.246 0.036h0.38 0.397c0.12-0.024 0.205-0.036 0.253-0.036l1.355-0.144 1.445-0.108c1.445 0 2.622 0.328 3.531 0.982 0.909 0.655 1.364 1.523 1.364 2.604 0.01 1.14-0.52 2.08-1.58 2.79zm55.73 7.04h-0.108l-1.156-0.135-1.012-0.027h-0.433-0.343c-0.169-0.024-0.295-0.036-0.379-0.036-0.615 0-1.114 0.02-1.499 0.06l-1.391 0.139c-0.241 0-0.361-0.106-0.361-0.317 0-0.246 0.12-0.37 0.361-0.37l0.398-0.09c0.542 0 0.813-0.217 0.813-0.65l-0.054-0.271-0.199-0.524-1.479-3.613h-3.663l-1.472 3.655c-0.094 0.197-0.141 0.399-0.141 0.608 0 0.184 0.031 0.341 0.091 0.47s0.145 0.224 0.253 0.286l0.633 0.129 0.398 0.036c0.144 0 0.235 0.018 0.271 0.054s0.054 0.127 0.054 0.271c0 0.217-0.048 0.325-0.145 0.325h-0.144l-0.343-0.084-0.632-0.021-1.156-0.021-0.637 0.031c-0.267 0.063-0.669 0.096-1.224 0.096h-0.488c-0.469 0-0.87-0.018-1.201-0.054-0.332-0.036-0.596-0.082-0.795-0.136s-0.349-0.118-0.452-0.19c-0.102-0.072-0.214-0.175-0.334-0.308-0.169-0.205-0.434-0.61-0.795-1.214l-2.493-4.366h-0.794v4.859c0 0.193 0.129 0.358 0.389 0.497 0.259 0.139 0.58 0.208 0.966 0.208 0.313 0 0.512 0.021 0.596 0.063 0.085 0.042 0.133 0.129 0.145 0.262 0 0.253-0.102 0.379-0.307 0.379l-1.264-0.108-1.193-0.054-0.903-0.036-1.698 0.054c-0.313 0-0.55 0.009-0.713 0.027s-0.431 0.057-0.804 0.117h-0.126c-0.193 0-0.289-0.115-0.289-0.344 0-0.109 0.018-0.193 0.055-0.253l0.111-0.055c0.061-0.012 0.098-0.024 0.11-0.036l0.57-0.036c0.49-0.048 0.806-0.151 0.947-0.308s0.23-0.344 0.267-0.562v-10.145c0-0.181-0.058-0.347-0.172-0.498-0.115-0.151-0.262-0.244-0.443-0.281h-0.614l-0.402-0.059 0.004 0.203c0 0.699 0.018 1.192 0.054 1.481l0.145 0.903c0 0.217-0.144 0.325-0.433 0.325-0.217 0-0.343-0.091-0.38-0.271l-0.199-0.766c-0.108-0.522-0.409-0.95-0.903-1.282-0.494-0.333-1.06-0.499-1.698-0.499-0.494 0-0.846 0.096-1.056 0.289-0.211 0.193-0.316 0.536-0.316 1.03v8.544c0 0.506 0.018 0.861 0.054 1.066s0.102 0.361 0.199 0.47c0.084 0.072 0.241 0.156 0.47 0.253 0.217 0.072 0.439 0.108 0.669 0.108 0.481 0 0.722 0.118 0.722 0.352 0 0.235-0.085 0.358-0.253 0.371h-0.109c-0.942-0.133-2.101-0.199-3.477-0.199l-1.873 0.06-1.261 0.139c-0.216 0-0.324-0.103-0.324-0.308 0-0.218 0.096-0.333 0.289-0.345l0.614-0.055c0.493-0.048 0.83-0.218 1.011-0.508 0.023-0.06 0.048-0.142 0.072-0.245 0.025-0.103 0.036-0.215 0.036-0.336v-9.252c0-0.423-0.018-0.699-0.054-0.826s-0.119-0.236-0.246-0.327-0.266-0.16-0.417-0.208c-0.151-0.049-0.33-0.073-0.535-0.073-0.834 0-1.5 0.22-1.996 0.659-0.496 0.44-0.798 1.069-0.907 1.888 0 0.241-0.112 0.361-0.335 0.361-0.258 0-0.393-0.084-0.405-0.252v-2.868l-0.379 0.067c-0.494 0.073-0.801 0.23-0.921 0.471-0.121 0.241-0.181 0.687-0.181 1.338v7.416c0 0.615-0.34 1.342-1.018 2.18-0.68 0.838-1.939 1.257-3.779 1.257-0.902 0-1.764-0.094-2.588-0.281-0.823-0.188-1.503-0.442-2.038-0.763s-0.944-0.79-1.226-1.408c-0.283-0.617-0.424-1.326-0.424-2.125v-6.941c0-0.23-0.009-0.409-0.027-0.536-0.019-0.127-0.085-0.242-0.201-0.345-0.115-0.103-0.252-0.172-0.41-0.209h-0.711c-0.268 0-0.441-0.021-0.519-0.063-0.079-0.042-0.119-0.166-0.119-0.37 0-0.241 0.109-0.361 0.325-0.361h0.47l0.65 0.101 1.048 0.08 1.301 0.036c0.747 0 1.421-0.034 2.023-0.102l1.048-0.115c0.205 0 0.307 0.14 0.307 0.418 0 0.165-0.079 0.273-0.235 0.323h-0.614c-0.446 0.073-0.744 0.184-0.894 0.335-0.151 0.151-0.244 0.323-0.28 0.516s-0.054 0.544-0.054 1.051v6.233c0 0.689 0.036 1.196 0.109 1.522 0.036 0.181 0.103 0.362 0.2 0.544 0.096 0.181 0.242 0.423 0.436 0.724 0.351 0.52 1.289 0.779 2.815 0.779 1.477 0 2.411-0.319 2.805-0.958 0.394-0.638 0.59-1.222 0.59-1.752v-7.135c0-0.458-0.018-0.792-0.054-1.003s-0.129-0.407-0.28-0.587c-0.151-0.18-0.461-0.271-0.93-0.271h-0.253c-0.109 0-0.193-0.009-0.253-0.027-0.061-0.018-0.097-0.105-0.109-0.262 0-0.265 0.115-0.397 0.343-0.397l0.054 0.051 0.596 0.076h2.078l0.849-0.077 0.614-0.103c0.106 0 0.166 0.06 0.206 0.148l1.074-0.039 1.028-0.072 1.335 0.072 2.651 0.054 2.533-0.054 1.465-0.072 2.125 0.065c0.066-0.052 0.156-0.083 0.281-0.083l0.577 0.108 1.283 0.054 1.228 0.036 1.933-0.091 1.21-0.054 0.885-0.054c1.312 0 2.369 0.292 3.17 0.876s1.202 1.376 1.202 2.375c0 0.819-0.22 1.484-0.66 1.996s-1.171 0.943-2.194 1.292l2.691 4.299c0.084 0.133 0.186 0.28 0.307 0.443s0.211 0.274 0.271 0.334l0.325 0.325 0.18 0.144 0.416 0.199 0.141 0.041c0.095-0.083 0.201-0.156 0.274-0.262 0.06-0.087 0.118-0.19 0.172-0.309s0.135-0.303 0.243-0.553l4.432-10.402 0.181-0.455c0.072-0.181 0.147-0.289 0.225-0.325s0.286-0.054 0.623-0.054h0.704c0.156 0 0.27 0.097 0.342 0.29l0.199 0.472 4.548 10.268c0.265 0.629 0.536 1.07 0.812 1.324 0.289 0.23 0.656 0.345 1.101 0.345 0.216 0 0.325 0.081 0.325 0.241-0.04 0.33-0.16 0.48-0.38 0.48z"/>
	<path d="m141.21 118.38c-0.487 0-0.815 0.103-0.985 0.307-0.049 0.084-0.091 0.235-0.128 0.452v4.949l0.867 0.036c0.903 0 1.574-0.229 2.014-0.686 0.44-0.458 0.659-1.174 0.659-2.149 0-0.843-0.231-1.538-0.694-2.086-0.46-0.54-1.04-0.82-1.73-0.82z"/>
	<polygon points="191.02 124.22 193.96 124.22 192.47 120.67"/>
</g>
</svg>
