<?xml version="1.0" encoding="UTF-8" standalone="no"?>
<!DOCTYPE svg  PUBLIC '-//W3C//DTD SVG 1.1//EN'  'http://www.w3.org/Graphics/SVG/1.1/DTD/svg11.dtd'>
<svg id="Layer_1" xmlns="http://www.w3.org/2000/svg" xml:space="preserve" height="127px" viewBox="40.5 21.5 242 127" width="242px" version="1.1" y="0px" x="0px" xmlns:xlink="http://www.w3.org/1999/xlink" enable-background="new 40.5 21.5 242 127">
<rect opacity="0" height="127" width="242" y="21.5" x="40.5" fill="#fff"/>
<path d="m71.12 93.995l4.251-21.732c0.552-3.738-4.093-3.205-4.093-3.205l0.957-2.475h17.102l0.483 2.515s-4.537-0.779-5.217 2.683l-4.379 22.827s-1.479 4.103 3.807 3.926l-0.789 2.347h-17.192l-0.434-2.425s4.931 0.887 5.543-4.734m25.939-17.118l0.612-2.999-11.5 1.499-0.335 1.864s3.896-0.977 2.554 4.211l-2.959 15.125h7.782l3.126-15.854s0.276-2.268 3.324-2.347c0 0 3.363 0.049 2.268 4.705l-2.722 13.537 11.53-1.421 0.316-1.83s-4.054 0.745-2.841-2.909l1.864-10.011s0.937-5.721-2.712-6.618c-0.01 0-4.15-1.736-10.312 3.048m25.582 19.838s-6.204 0.986-8.916-1.697c0 0-4.951-3.772-0.158-13.013 4.774-9.251 15.356-8.028 15.356-8.028l0.562-2.919s0.533-2.673-3.965-2.189l0.631-1.992 12.22-1.549-4.971 25.318s-1.105 3.117 3.925 2.752l-0.316 1.761-12.46 1.615 3.856-19.917s-4.379-1.144-7.062 5.316c0 0-4.921 11.86 2.13 12.629l-0.306 1.756-0.52 0.157zm28.82-23.527c6.894 0.029 11.815 5.493 10.977 12.2-0.848 6.697-7.131 12.117-14.045 12.077-6.894-0.04-11.815-5.499-10.967-12.205 0.83-6.707 7.12-12.112 14.03-12.072m0.31 2.673s-3.541-1.312-5.562 8.433c-2.061 9.976 1.627 10.43 1.627 10.43s4.103 1.46 5.957-8.358c1.55-8.168-0.21-10.387-2.03-10.505m39.23-2.673c6.904 0.029 11.816 5.493 10.967 12.2-0.838 6.697-7.13 12.117-14.035 12.077-6.894-0.04-11.815-5.499-10.977-12.205 0.84-6.707 7.13-12.112 14.04-12.072m0.3 2.673s-3.54-1.312-5.562 8.433c-2.061 9.976 1.627 10.43 1.627 10.43s4.103 1.46 5.957-8.358c1.55-8.168-0.2-10.387-2.03-10.505m26.9-2.673c6.914 0.029 11.816 5.493 10.967 12.2-0.838 6.697-7.121 12.117-14.024 12.077-6.894-0.04-11.816-5.499-10.967-12.205 0.84-6.707 7.12-12.112 14.02-12.072m0.32 2.673s-3.54-1.312-5.563 8.433c-2.061 9.976 1.628 10.43 1.628 10.43s4.093 1.46 5.956-8.358c1.55-8.168-0.22-10.387-2.03-10.505m-43.45 0.808h4.961l0.681-2.683h-5.109s-4.458 0.168-3.156-3.442c0 0 1.381-1.982 3.156-0.286 0 0 0.69 0.503 2.515 2.397l5.395-4.783s-4.133-5.129-9.488-2.318c-2.308 1.223-5.839 6.213-5.839 6.213s-1.173 1.992-4.221 2.436l-0.642 2.594h4.172c-1.598 11.184-2.614 15.494-2.614 15.494 0.04-0.118-1.686 8.882-2.85 11.268 0 0-1.884 5.089-5.365 6.727-1.982 0.947-4.744 0.651-4.744 0.651-2.811 0-5.622-2.564-5.622-4.932 0-2.012 1.953-4.852 5.129-4.852h9.123c0.769-2.505 0.612-2.425 0.612-2.425h-9.547c-4.606 0-8.265 3.017-8.265 7.022 0 3.886 4.014 7.752 8.62 7.752 0 0 9.528 1.538 15.721-10.04 0 0 2.545-3.333 5.03-14.769 2.47-11.453 2.34-12.026 2.34-12.026m-30 22.059h-58.624l-0.74 2.446h56.73s0.44-1.559 2.63-2.446m26.21 2.446h84.572l0.562-2.446h-84.277c-0.17 1.341-0.85 2.446-0.85 2.446m71.25-4.616l0.306-1.756c-7.061-0.769-2.13-12.629-2.13-12.629 2.673-6.46 7.052-5.316 7.052-5.316l-3.86 19.917 12.477-1.617 0.315-1.761c-5.04 0.365-3.945-2.752-3.945-2.752l4.981-25.318-12.23 1.549-0.611 1.992c4.487-0.483 3.965 2.189 3.965 2.189l-0.562 2.919s-10.583-1.223-15.376 8.028c-4.783 9.242 0.167 13.013 0.167 13.013 2.712 2.683 8.926 1.697 8.926 1.697l0.51-0.155z" fill="#004F9E"/>
</svg>
