<?xml version="1.0" encoding="UTF-8" standalone="no"?>
<!DOCTYPE svg  PUBLIC '-//W3C//DTD SVG 1.1//EN'  'http://www.w3.org/Graphics/SVG/1.1/DTD/svg11.dtd'>
<svg id="Layer_1" xmlns="http://www.w3.org/2000/svg" xml:space="preserve" height="127px" viewBox="0 0 242 127" width="242px" version="1.1" y="0px" x="0px" xmlns:xlink="http://www.w3.org/1999/xlink" enable-background="new 0 0 242 127">
<rect height="127" width="242" fill-opacity="0" fill="#fff"/>
	<rect y="42.505" x="24.967" height="40.235" width="192.07" fill="#EC1C24"/>
	<g fill="#fff">
		<path d="m50.56 52.522c2.733 0.022 4.817 0.768 6.248 2.229 1.432 1.469 2.168 3.078 2.209 4.84v0.186c0 1.707-0.685 3.283-2.052 4.718-1.37 1.439-3.432 2.155-6.186 2.155h-3.731v6.134h-6.829v-20.262h10.341zm-3.512 8.99h3.29c0.63 0.024 1.1-0.156 1.427-0.542 0.322-0.382 0.508-0.801 0.548-1.257v-0.296c0-0.054-0.013-0.11-0.032-0.173-0.062-0.462-0.27-0.887-0.625-1.284s-0.869-0.597-1.538-0.597l-3.07-0.028v4.177z"/>
		<path d="m70.61 51.86c3.444 0.02 6.093 1.109 7.939 3.262 1.85 2.148 2.879 4.508 3.087 7.079 0 0.064 0.007 0.13 0.016 0.204 0.012 0.074 0.014 0.152 0.014 0.232 0 2.78-0.891 5.264-2.676 7.459-1.788 2.194-4.51 3.289-8.162 3.289-3.653 0-6.394-1.095-8.223-3.289-1.829-2.196-2.74-4.615-2.74-7.269v-0.19c0.041-2.631 0.967-5.052 2.786-7.265 1.821-2.215 4.469-3.373 7.96-3.483v-0.029zm0.217 5.233c-1.087 0.018-2.008 0.483-2.776 1.393-0.76 0.907-1.142 2.292-1.142 4.151 0 1.901 0.358 3.336 1.072 4.306 0.707 0.969 1.656 1.456 2.846 1.456 1.232 0 2.177-0.522 2.817-1.562 0.649-1.048 0.973-2.521 0.973-4.42 0-1.651-0.326-2.893-0.982-3.731-0.662-0.835-1.376-1.334-2.149-1.506-0.124-0.016-0.244-0.035-0.348-0.042-0.103-0.009-0.205-0.017-0.312-0.017v-0.028z"/>
		<polygon points="90.062 52.522 90.062 67.934 99.306 67.934 99.306 72.729 83.456 72.729 83.456 52.522"/>
		<polygon points="102.23 52.522 105.52 59.137 108.84 52.522 116.55 52.522 108.84 65.497 108.84 72.785 102.23 72.785 102.23 65.497 94.746 52.522"/>
		<polygon points="135.88 52.522 135.88 57.994 129.92 57.994 129.92 72.785 123.06 72.785 123.06 57.994 117.17 57.994 117.17 52.522"/>
		<path d="m149.02 52.522c3.047 0.022 5.183 0.595 6.405 1.712 1.218 1.115 1.863 2.346 1.927 3.694v0.249c0 1.242-0.331 2.379-1.001 3.425-0.674 1.037-1.409 1.605-2.225 1.684 1.42 0.658 2.281 1.423 2.585 2.308 0.304 0.882 0.454 1.98 0.454 3.278v1.077c0 0.676 0.038 1.184 0.11 1.535 0.073 0.344 0.329 0.569 0.771 0.676v0.626h-7.03c-0.129-0.652-0.205-1.274-0.238-1.867-0.03-0.586-0.044-1.113-0.044-1.578-0.022-0.84-0.09-1.523-0.21-2.037-0.115-0.519-0.46-0.878-1.046-1.092-0.227-0.102-0.494-0.178-0.812-0.22-0.318-0.04-0.639-0.061-0.974-0.061-0.186 0-0.377 0.004-0.565 0.019-0.184 0.009-0.383 0.011-0.592 0.011h-0.123c-0.191 0-0.375 0.006-0.551 0.016-0.179 0.014-0.35 0.015-0.517 0.015v6.794h-6.83v-20.264h10.52zm-3.92 8.584h3.92c0.604 0.021 1.07-0.158 1.392-0.534 0.327-0.374 0.487-0.788 0.487-1.237v-0.158c-0.041-0.416-0.233-0.801-0.578-1.143-0.345-0.344-0.855-0.518-1.521-0.518l-3.7-0.03v3.62z"/>
		<path d="m169.26 51.86c3.448 0.02 6.094 1.109 7.943 3.262 1.849 2.148 2.874 4.508 3.086 7.079 0 0.064 0.003 0.13 0.013 0.204 0.016 0.074 0.016 0.152 0.016 0.232 0 2.78-0.89 5.264-2.679 7.459-1.789 2.194-4.502 3.289-8.158 3.289-3.655 0-6.398-1.095-8.223-3.289-1.826-2.196-2.742-4.615-2.742-7.269v-0.19c0.041-2.631 0.967-5.052 2.789-7.265 1.816-2.215 4.469-3.373 7.955-3.483v-0.029zm0.22 5.233c-1.087 0.018-2.008 0.483-2.774 1.393-0.76 0.907-1.14 2.292-1.14 4.151 0 1.901 0.352 3.336 1.067 4.306 0.707 0.969 1.655 1.456 2.848 1.456 1.238 0 2.173-0.522 2.821-1.562 0.649-1.048 0.969-2.521 0.969-4.42 0-1.651-0.328-2.893-0.985-3.731-0.658-0.835-1.374-1.334-2.147-1.506-0.126-0.016-0.239-0.035-0.344-0.042-0.103-0.009-0.209-0.017-0.314-0.017v-0.028z"/>
		<polygon points="188.34 52.522 195.39 63.049 195.17 59.79 195.17 52.522 201.78 52.522 201.78 72.729 195.39 72.729 188.34 61.952 188.56 65.241 188.56 72.729 182.17 72.729 182.17 52.522"/>
	</g>
</svg>
