<?xml version="1.0" encoding="UTF-8" standalone="no"?>
<!DOCTYPE svg  PUBLIC '-//W3C//DTD SVG 1.1//EN'  'http://www.w3.org/Graphics/SVG/1.1/DTD/svg11.dtd'>
<svg id="Layer_1" xmlns="http://www.w3.org/2000/svg" xml:space="preserve" height="127px" viewBox="40.5 21.5 242 127" width="242px" version="1.1" y="0px" x="0px" xmlns:xlink="http://www.w3.org/1999/xlink" enable-background="new 40.5 21.5 242 127">
<rect fill-opacity="0" height="127" width="242" y="21.5" x="40.5" fill="#fff"/>
<g id="XMLID_2_" fill="#0680C4">
	<path id="XMLID_82_" d="m95.283 95.162c0-0.282 0.24-0.514 0.533-0.514s0.532 0.232 0.532 0.514c0 0.284-0.239 0.516-0.532 0.516s-0.533-0.232-0.533-0.516"/>
	<path id="XMLID_81_" d="m262.72 95.162c0-0.282 0.24-0.514 0.533-0.514s0.533 0.232 0.533 0.514c0 0.284-0.24 0.516-0.533 0.516-0.29 0-0.53-0.232-0.53-0.516"/>
	<path id="XMLID_80_" d="m87.161 102.07l0.593-0.701c0.883 0.798 1.73 1.199 2.904 1.199 1.139 0 1.889-0.607 1.889-1.441v-0.024c0-0.788-0.424-1.236-2.204-1.612-1.948-0.424-2.844-1.054-2.844-2.444v-0.025c0-1.333 1.173-2.312 2.784-2.312 1.234 0 2.118 0.352 2.978 1.039l-0.558 0.74c-0.787-0.643-1.572-0.92-2.445-0.92-1.102 0-1.804 0.605-1.804 1.367v0.024c0 0.8 0.436 1.247 2.299 1.647 1.889 0.411 2.761 1.101 2.761 2.397v0.024c0 1.454-1.212 2.397-2.894 2.397-1.34-0.01-2.441-0.45-3.459-1.36"/>
	<rect id="XMLID_79_" height="6.256" width=".932" y="97.047" x="95.343"/>
	<path id="XMLID_78_" d="m98.592 101.64v-3.777h-0.872v-0.822h0.872v-1.888h0.932v1.888h1.986v0.822h-1.986v3.657c0 0.762 0.424 1.041 1.054 1.041 0.313 0 0.58-0.062 0.908-0.219v0.798c-0.327 0.171-0.679 0.268-1.126 0.268-1.006 0-1.768-0.49-1.768-1.77"/>
	<path id="XMLID_77_" d="m102.92 100.93v-3.885h0.932v3.655c0 1.162 0.629 1.888 1.73 1.888 1.065 0 1.875-0.788 1.875-1.961v-3.582h0.92v6.256h-0.92v-1.088c-0.423 0.677-1.063 1.222-2.141 1.222-1.52 0.01-2.4-1.01-2.4-2.5"/>
	<path id="XMLID_76_" d="m109.92 102.5l0.472-0.666c0.679 0.509 1.429 0.798 2.167 0.798 0.752 0 1.296-0.386 1.296-0.992v-0.024c0-0.63-0.739-0.873-1.561-1.102-0.982-0.277-2.071-0.617-2.071-1.767v-0.024c0-1.077 0.895-1.792 2.131-1.792 0.762 0 1.61 0.266 2.252 0.69l-0.424 0.702c-0.581-0.375-1.247-0.605-1.852-0.605-0.738 0-1.212 0.386-1.212 0.907v0.025c0 0.592 0.776 0.822 1.611 1.077 0.969 0.291 2.009 0.665 2.009 1.793v0.024c0 1.186-0.98 1.876-2.228 1.876-0.9-0.01-1.9-0.36-2.6-0.93"/>
	<path id="XMLID_73_" d="m120.26 94.831h3.171c1.913 0 3.171 1.015 3.171 2.686v0.024c0 1.828-1.524 2.774-3.327 2.774h-2.058v2.989h-0.956v-8.479zm3.06 4.611c1.403 0 2.324-0.749 2.324-1.865v-0.024c0-1.211-0.909-1.837-2.276-1.837h-2.143v3.726h2.1z"/>
	<path id="XMLID_72_" d="m128.14 97.047h0.932v1.633c0.46-1.041 1.368-1.793 2.554-1.743v1.005h-0.073c-1.368 0-2.482 0.981-2.482 2.87v2.493h-0.932v-6.253z"/>
	<path id="XMLID_69_" d="m132.42 100.2v-0.025c0-1.767 1.38-3.266 3.268-3.266 1.876 0 3.256 1.475 3.256 3.244v0.022c0 1.769-1.394 3.269-3.281 3.269-1.89 0-3.25-1.48-3.25-3.25m5.56 0v-0.025c0-1.342-1.005-2.443-2.324-2.443-1.357 0-2.289 1.101-2.289 2.42v0.022c0 1.347 0.993 2.435 2.313 2.435 1.36-0.01 2.3-1.1 2.3-2.42"/>
	<path id="XMLID_66_" d="m140.61 97.047h0.933v1.258c0.509-0.751 1.246-1.392 2.397-1.392 1.501 0 2.989 1.186 2.989 3.244v0.022c0 2.048-1.477 3.259-2.989 3.259-1.162 0-1.912-0.63-2.397-1.333v3.136h-0.933v-8.203zm5.37 3.143v-0.025c0-1.475-1.017-2.42-2.202-2.42-1.162 0-2.264 0.981-2.264 2.41v0.022c0 1.456 1.102 2.424 2.264 2.424 1.2 0.01 2.2-0.89 2.2-2.4"/>
	<path id="XMLID_63_" d="m151.43 102.64c0.86 0 1.463-0.349 1.972-0.881l0.582 0.518c-0.63 0.702-1.393 1.175-2.579 1.175-1.719 0-3.122-1.318-3.122-3.269 0-1.814 1.27-3.266 3.002-3.266 1.851 0 2.918 1.475 2.918 3.317 0 0.085 0 0.181-0.014 0.326h-4.962c0.13 1.31 1.1 2.07 2.2 2.07m1.83-2.835c-0.11-1.138-0.763-2.106-1.998-2.106-1.077 0-1.9 0.896-2.033 2.106h4.03z"/>
	<path id="XMLID_62_" d="m155.86 97.047h0.932v1.633c0.46-1.041 1.368-1.793 2.554-1.743v1.005h-0.073c-1.367 0-2.481 0.981-2.481 2.87v2.493h-0.932v-6.253z"/>
	<path id="XMLID_61_" d="m161.29 101.64v-3.777h-0.87v-0.822h0.87v-1.888h0.933v1.888h1.985v0.822h-1.985v3.657c0 0.762 0.423 1.041 1.053 1.041 0.313 0 0.579-0.062 0.907-0.219v0.798c-0.328 0.171-0.679 0.268-1.124 0.268-1 0-1.77-0.49-1.77-1.77"/>
	<path id="XMLID_60_" d="m165.66 95.162c0-0.282 0.239-0.514 0.531-0.514s0.53 0.232 0.53 0.514c0 0.284-0.238 0.516-0.53 0.516s-0.53-0.232-0.53-0.516"/>
	<rect id="XMLID_59_" height="6.256" width=".932" y="97.047" x="165.71"/>
	<polygon id="XMLID_58_" points="172.6 94.831 173.5 94.831 178.84 101.62 178.84 94.831 179.77 94.831 179.77 103.3 179.01 103.3 173.54 96.357 173.54 103.3 172.6 103.3"/>
	<path id="XMLID_55_" d="m181.7 100.2v-0.025c0-1.767 1.38-3.266 3.269-3.266 1.876 0 3.255 1.475 3.255 3.244v0.022c0 1.769-1.392 3.269-3.278 3.269-1.87 0-3.24-1.48-3.24-3.25m5.57 0v-0.025c0-1.342-1.006-2.443-2.324-2.443-1.358 0-2.291 1.101-2.291 2.42v0.022c0 1.347 0.995 2.435 2.315 2.435 1.34-0.01 2.29-1.1 2.29-2.42"/>
	<path id="XMLID_50_" d="m189.74 102.67c0-0.349 0.252-0.635 0.557-0.635 0.306 0 0.557 0.286 0.557 0.635s-0.251 0.637-0.557 0.637c-0.31-0.02-0.56-0.3-0.56-0.65"/>
	<polygon id="XMLID_49_" points="193.69 95.763 192.09 96.259 191.86 95.483 193.94 94.771 194.64 94.771 194.64 103.3 193.69 103.3"/>
	<path id="XMLID_46_" d="m200.17 100.19v-0.025c0-2.046 1.488-3.255 2.989-3.255 1.162 0 1.914 0.628 2.397 1.331v-3.777h0.932v8.837h-0.932v-1.258c-0.507 0.749-1.245 1.392-2.397 1.392-1.5 0.01-2.99-1.18-2.99-3.24m5.42-0.01v-0.022c0-1.441-1.103-2.41-2.263-2.41-1.211 0-2.201 0.896-2.201 2.41v0.022c0 1.479 1.015 2.424 2.201 2.424 1.16 0 2.26-0.98 2.26-2.42"/>
	<path id="XMLID_45_" d="m208.54 95.162c0-0.282 0.24-0.514 0.533-0.514 0.294 0 0.533 0.232 0.533 0.514 0 0.284-0.24 0.516-0.533 0.516-0.29 0-0.53-0.232-0.53-0.516"/>
	<rect id="XMLID_44_" height="6.256" width=".932" y="97.047" x="208.6"/>
	<rect id="XMLID_43_" height="8.473" width=".954" y="94.831" x="215.58"/>
	<path id="XMLID_42_" d="m218.85 97.047h0.932v1.088c0.409-0.679 1.064-1.222 2.14-1.222 1.515 0 2.399 1.018 2.399 2.505v3.885h-0.932v-3.655c0-1.162-0.628-1.888-1.733-1.888-1.077 0-1.874 0.786-1.874 1.961v3.582h-0.932v-6.253z"/>
	<path id="XMLID_39_" d="m225.96 100.19v-0.025c0-2.046 1.49-3.255 2.991-3.255 1.162 0 1.914 0.628 2.397 1.331v-3.777h0.934v8.837h-0.934v-1.258c-0.509 0.749-1.247 1.392-2.397 1.392-1.5 0.01-2.99-1.18-2.99-3.24m5.42-0.01v-0.022c0-1.441-1.101-2.41-2.265-2.41-1.209 0-2.201 0.896-2.201 2.41v0.022c0 1.479 1.018 2.424 2.201 2.424 1.16 0 2.26-0.98 2.26-2.42"/>
	<path id="XMLID_36_" d="m233.98 100.2v-0.025c0-1.767 1.38-3.266 3.268-3.266 1.877 0 3.257 1.475 3.257 3.244v0.022c0 1.769-1.394 3.269-3.281 3.269-1.88 0-3.25-1.48-3.25-3.25m5.57 0v-0.025c0-1.342-1.006-2.443-2.324-2.443-1.356 0-2.288 1.101-2.288 2.42v0.022c0 1.347 0.992 2.435 2.312 2.435 1.35-0.01 2.3-1.1 2.3-2.42"/>
	<path id="XMLID_35_" d="m242.18 97.047h0.932v1.088c0.411-0.679 1.064-1.222 2.143-1.222 1.512 0 2.395 1.018 2.395 2.505v3.885h-0.931v-3.655c0-1.162-0.63-1.888-1.733-1.888-1.077 0-1.876 0.786-1.876 1.961v3.582h-0.932l0.01-6.253z"/>
	<path id="XMLID_32_" d="m252.42 102.64c0.858 0 1.463-0.349 1.972-0.881l0.583 0.518c-0.63 0.702-1.394 1.175-2.58 1.175-1.718 0-3.123-1.318-3.123-3.269 0-1.814 1.271-3.266 3.003-3.266 1.852 0 2.916 1.475 2.916 3.317 0 0.085 0 0.181-0.013 0.326h-4.962c0.13 1.31 1.1 2.07 2.2 2.07m1.83-2.835c-0.108-1.138-0.762-2.106-1.997-2.106-1.077 0-1.901 0.896-2.033 2.106h4.03z"/>
	<path id="XMLID_31_" d="m256.27 102.5l0.472-0.666c0.677 0.509 1.429 0.798 2.165 0.798 0.751 0 1.296-0.386 1.296-0.992v-0.024c0-0.63-0.739-0.873-1.563-1.102-0.979-0.277-2.069-0.617-2.069-1.767v-0.024c0-1.077 0.898-1.792 2.131-1.792 0.762 0 1.61 0.266 2.252 0.69l-0.424 0.702c-0.581-0.375-1.247-0.605-1.854-0.605-0.737 0-1.208 0.386-1.208 0.907v0.025c0 0.592 0.773 0.822 1.607 1.077 0.969 0.291 2.009 0.665 2.009 1.793v0.024c0 1.186-0.979 1.876-2.227 1.876-0.89-0.01-1.89-0.36-2.59-0.93"/>
	<path id="XMLID_27_" d="m66.814 68.424c-7.947 0-14.392 5.59-14.392 12.488 0 0.201 0.006 0.404 0.019 0.605 0.001 0.031 0.004 0.058 0.004 0.085 0.605 10.312 14.369 23.638 14.369 23.638s13.766-13.326 14.37-23.638c0.003-0.027 0.005-0.055 0.005-0.085 0.011-0.201 0.02-0.404 0.02-0.605 0-6.897-6.444-12.488-14.395-12.488m9.94 15.928c-0.643 0.824-1.836 0.976-2.664 0.329l-0.651-0.505-0.83 6.535c-0.041 0.338-0.182 0.668-0.381 0.907-0.197 0.239-0.447 0.377-0.684 0.377h-2.132c-0.865 0-0.869-0.807-0.869-0.918v-0.015l0.131-3.088c0.012-0.433-0.261-0.791-0.612-0.791h-2.458c-0.352 0-0.619 0.359-0.599 0.791l0.196 3.088s0.06 0.932-0.866 0.932h-2.115c-0.237 0-0.49-0.138-0.692-0.377s-0.349-0.568-0.395-0.907l-0.935-6.541-0.657 0.51v0.003c-0.346 0.268-0.756 0.4-1.164 0.4-0.568 0-1.126-0.249-1.5-0.733-0.647-0.827-0.499-2.02 0.331-2.667l8.441-6.568c0.687-0.537 1.64-0.537 2.331 0l8.443 6.568c0.828 0.65 0.976 1.843 0.331 2.67"/>
	<path id="XMLID_26_" d="m87.161 73.714h4.145v2.946c0.846-2.017 2.208-3.326 4.663-3.217v4.336h-0.217c-2.757 0-4.446 1.664-4.446 5.156v5.399h-4.145v-14.62z"/>
	<path id="XMLID_25_" d="m97.357 83.179v-9.465h4.145v8.156c0 1.965 0.928 2.973 2.512 2.973 1.578 0 2.59-1.008 2.59-2.973v-8.156h4.145v14.621h-4.145v-2.075c-0.955 1.227-2.182 2.346-4.284 2.346-3.134 0-4.963-2.072-4.963-5.427"/>
	<path id="XMLID_24_" d="m113.36 73.714h4.147v2.073c0.953-1.226 2.208-2.345 4.309-2.345 1.908 0 3.354 0.844 4.116 2.317 1.282-1.499 2.812-2.317 4.801-2.317 3.081 0 4.935 1.856 4.935 5.373v9.517h-4.145v-8.153c0-1.965-0.874-2.972-2.426-2.972-1.556 0-2.51 1.008-2.51 2.972v8.154h-4.147v-8.154c0-1.965-0.872-2.972-2.426-2.972-1.556 0-2.508 1.008-2.508 2.972v8.154h-4.147v-14.619z"/>
	<path id="XMLID_21_" d="m137.3 84.135v-0.056c0-3.19 2.431-4.664 5.892-4.664 1.472 0 2.538 0.246 3.574 0.601v-0.246c0-1.718-1.064-2.674-3.137-2.674-1.58 0-2.7 0.301-4.036 0.791l-1.037-3.162c1.609-0.71 3.192-1.173 5.675-1.173 2.262 0 3.897 0.601 4.935 1.637 1.091 1.092 1.581 2.699 1.581 4.664v8.483h-4.008v-1.582c-1.009 1.119-2.401 1.854-4.419 1.854-2.74-0.002-5.01-1.582-5.01-4.473m9.52-0.956v-0.735c-0.709-0.328-1.635-0.547-2.642-0.547-1.773 0-2.865 0.708-2.865 2.018v0.055c0 1.117 0.927 1.772 2.264 1.772 1.93 0 3.24-1.063 3.24-2.563"/>
	<path id="XMLID_20_" d="m153.22 68.424h4.146v7.363c0.953-1.226 2.181-2.345 4.279-2.345 3.139 0 4.966 2.073 4.966 5.427v9.463h-4.146v-8.153c0-1.965-0.929-2.972-2.511-2.972-1.58 0-2.589 1.008-2.589 2.972v8.154h-4.146v-19.909z"/>
	<polygon id="XMLID_19_" points="172.12 73.361 168.79 74.18 167.92 70.742 173.4 69.107 176.26 69.107 176.26 88.333 172.12 88.333"/>
	<path id="XMLID_18_" d="m179.02 85.006l6.354-5.209c2.373-1.965 3.3-3 3.3-4.582 0-1.61-1.064-2.482-2.566-2.482-1.472 0-2.48 0.818-3.898 2.566l-2.947-2.375c1.883-2.561 3.711-3.954 7.12-3.954 3.954 0 6.572 2.317 6.572 5.891v0.056c0 3.19-1.635 4.772-5.015 7.39l-3.112 2.401h8.319v3.626h-14.129v-3.327h0.02z"/>
	<path id="XMLID_17_" d="m194.61 85.361l2.891-2.756c1.309 1.474 2.672 2.294 4.608 2.294 1.582 0 2.703-0.902 2.703-2.319v-0.056c0-1.554-1.392-2.426-3.737-2.426h-1.747l-0.652-2.674 4.55-4.582h-7.497v-3.599h12.901v3.162l-4.829 4.609c2.591 0.436 5.129 1.801 5.129 5.346v0.055c0 3.601-2.618 6.246-6.874 6.246-3.43 0-5.8-1.364-7.44-3.3"/>
	<path id="XMLID_15_" d="m211.11 86.151c0-1.2 0.994-2.181 2.21-2.181s2.21 0.981 2.21 2.181-0.994 2.181-2.21 2.181c-1.22 0.001-2.21-0.98-2.21-2.181"/>
	<path id="XMLID_13_" d="m216.72 81.106v-0.055c0-4.173 3.19-7.609 7.665-7.609 2.754 0 4.47 0.927 5.837 2.455l-2.538 2.726c-0.927-0.981-1.854-1.61-3.327-1.61-2.073 0-3.545 1.828-3.545 3.983v0.055c0 2.238 1.445 4.035 3.708 4.035 1.394 0 2.346-0.599 3.355-1.553l2.428 2.453c-1.416 1.557-3.054 2.674-5.973 2.674-4.38 0.001-7.6-3.381-7.6-7.554"/>
	<path id="XMLID_8_" d="m230.79 81.106v-0.055c0-4.2 3.382-7.609 7.936-7.609 4.526 0 7.883 3.355 7.883 7.555v0.055c0 4.2-3.383 7.609-7.936 7.609-4.53 0-7.88-3.355-7.88-7.555m11.73 0v-0.055c0-2.155-1.557-4.037-3.847-4.037-2.373 0-3.793 1.828-3.793 3.983v0.055c0 2.155 1.555 4.035 3.847 4.035 2.37 0 3.79-1.826 3.79-3.981"/>
	<path id="XMLID_7_" d="m248.51 73.714h4.146v2.073c0.954-1.226 2.207-2.345 4.311-2.345 1.908 0 3.355 0.844 4.118 2.317 1.28-1.499 2.808-2.317 4.799-2.317 3.081 0 4.935 1.856 4.935 5.373v9.517h-4.144v-8.153c0-1.965-0.873-2.972-2.428-2.972-1.557 0-2.509 1.008-2.509 2.972v8.154h-4.146v-8.154c0-1.965-0.873-2.972-2.428-2.972s-2.509 1.008-2.509 2.972v8.154h-4.146l0.01-14.619z"/>
	<rect id="XMLID_6_" height="6.256" width=".934" y="97.047" x="262.78"/>
	<path id="XMLID_3_" d="m265.32 101.49v-0.024c0-1.345 1.088-2.046 2.674-2.046 0.798 0 1.356 0.108 1.914 0.266v-0.194c0-1.113-0.679-1.695-1.852-1.695-0.739 0-1.32 0.181-1.901 0.447l-0.279-0.762c0.69-0.315 1.356-0.533 2.276-0.533 0.885 0 1.573 0.241 2.022 0.69 0.436 0.435 0.653 1.041 0.653 1.841v3.824h-0.92v-0.932c-0.435 0.558-1.15 1.066-2.252 1.066-1.17-0.01-2.33-0.68-2.33-1.96m4.6-0.49v-0.581c-0.46-0.134-1.064-0.266-1.828-0.266-1.161 0-1.827 0.509-1.827 1.258v0.024c0 0.788 0.728 1.247 1.575 1.247 1.14 0.01 2.08-0.68 2.08-1.68"/>
</g>
</svg>
