<?xml version="1.0" encoding="UTF-8" standalone="no"?>
<!DOCTYPE svg  PUBLIC '-//W3C//DTD SVG 1.1//EN'  'http://www.w3.org/Graphics/SVG/1.1/DTD/svg11.dtd'>
<svg id="Layer_1" xmlns="http://www.w3.org/2000/svg" xml:space="preserve" height="127px" viewBox="0 0 242 127" width="242px" version="1.1" y="0px" x="0px" xmlns:xlink="http://www.w3.org/1999/xlink" enable-background="new 0 0 242 127">
<style type="text/css">
	.st0{fill:#FFFFFF;fill-opacity:0;}
</style>
<rect y="0" class="st0" width="242" height="127"/>
<g>
	<path d="M213,73.6c-1.6,0-2.8,1.2-2.8,2.8c0,1.6,1.2,2.8,2.8,2.8s2.8-1.2,2.8-2.8C215.7,74.8,214.5,73.6,213,73.6z M213,78.9
		c-1.3,0-2.5-1.1-2.5-2.5c0-1.3,1.1-2.5,2.5-2.5c1.3,0,2.5,1.1,2.5,2.5C215.4,77.7,214.3,78.9,213,78.9z"/>
	<path d="M214.4,75.6c0-0.2-0.1-0.6-0.3-0.7c-0.2-0.2-0.5-0.2-0.7-0.2H212V78h0.4v-1.4h0.7l0.9,1.4h0.4l-0.9-1.4
		C214,76.5,214.4,76.2,214.4,75.6z M212.9,76.2h-0.6v-1.1h0.9c0.4,0,0.8,0.1,0.8,0.6C214,76.3,213.3,76.2,212.9,76.2z"/>
	<path d="M196.4,60.4l5.7-6.1c0.3-0.4,0.5-0.7,0.5-1c0-0.4-0.4-0.7-1.6-0.7h-1.4v-3.9h15.7v3.9h-2.1c-2.4,0-2.8,0.3-6.1,4.6
		l-9.1,9.8v6c0,1.5,0.7,2.1,3,2.1h3.4v3.7h-22v-3.7h3.4c2.2,0,3-0.5,3-2.1v-6l-10.7-11.9c-1.7-2.1-1.5-2.5-6.5-2.5v-3.9h19.9v3.9
		h-1.3c-1.4,0-2.1,0.2-2.1,0.8c0,0.4,0.4,0.8,0.7,1.2l5.4,5.9C194.9,61.2,195.7,61.3,196.4,60.4z"/>
	<path d="M63,48.8h4.8v10.8h-4.4c-0.4-2.2-1.7-3-3-4.2c-2.2-2.1-7.1-3.7-11.1-3.7c-5.2,0-9.6,1.7-9.6,4c0,6.6,29.9,1.3,29.9,13.9
		c0,6.6-6.4,10.2-17.9,10.2c-4,0-10.1-1.2-13.5-3.2c-1.1-0.7-1.6,0.6-1.8,2.2h-4.9V67.7h4.5c1,2.8,2.3,3.4,3.6,4.6
		c2.2,2,7.3,3.4,12,3.4c7.1-0.1,9.6-1.7,9.6-3.9s-2.4-2.8-10.2-4l-6.6-1.1c-7.5-1.2-12.9-2.8-12.9-8.7c0.1-6.2,7-10.1,17.8-10.1
		c4.6,0,8.4,0.6,12,2.7C62.1,51.1,63.1,51.2,63,48.8z"/>
	<path d="M156.7,66.8l0.1-12c0-1.6-0.8-2.1-3.2-2.1h-2.7V49h17.5v3.7h-2.2c-2.3,0-3.2,0.6-3.2,2.1V79l-6.9-0.1l-22.2-21v15.3
		c0,1.5,0.8,2.1,3.2,2.1h3.1v3.7h-18.2v-3.7h3c2.3,0,3.2-0.6,3.2-2.1V54.9c0-1.6-0.8-2.1-3.2-2.1h-3v-3.7h15.7L156.7,66.8z"/>
	<path d="M98,47.6c-14,0-22.7,6.1-22.7,16.1c0,9.7,8.6,15.9,22.3,15.9c14.5,0,22.9-6.1,22.9-16.4C120.5,53.9,111.4,47.6,98,47.6z
		 M97.7,75.6c-7.7,0-12.2-4.5-12.2-12.1c0-7.6,4.7-12,12.5-12c7.6,0,12,4.6,12,12.3C110,71.3,105.6,75.6,97.7,75.6z"/>
</g>
</svg>
