<?xml version="1.0" encoding="UTF-8" standalone="no"?>
<!DOCTYPE svg  PUBLIC '-//W3C//DTD SVG 1.1//EN'  'http://www.w3.org/Graphics/SVG/1.1/DTD/svg11.dtd'>
<svg id="Layer_1" xmlns="http://www.w3.org/2000/svg" xml:space="preserve" height="127px" viewBox="0 0 242 127" width="242px" version="1.1" y="0px" x="0px" xmlns:xlink="http://www.w3.org/1999/xlink" enable-background="new 0 0 242 127">
<rect height="127" width="242" fill-opacity="0" fill="#fff"/>
		<path d="m190.97 55.016h4.831v23.405h-0.339c-2.48 0-4.492-2.012-4.492-4.493v-18.912zm-40.75 23.811c-3.087 0.655-6.116 0.15-9.07-1.5-2.882-1.611-4.814-4.006-5.781-7.167-1.956-6.397 2.052-13.526 8.495-15.254 3.194-0.855 6.259-0.468 9.168 1.16 4.834 2.7 6.595 6.88 6.288 12.265l-19.469-0.04c0.286 2.197 1.649 3.916 3.562 4.984 1.94 1.085 3.725 1.343 5.381 0.83 1.836-0.577 3.327-2.077 4.54-3.473l3.968 2.891c-1.61 2.896-3.82 4.61-7.08 5.304zm3.69-14.908c-0.612-1.89-1.377-2.818-3.139-3.801-4.186-2.341-8.307-0.349-10.225 3.782l13.37 0.019zm66.15 1.367c0-1.904-0.72-3.412-2.17-4.556-1.304-1.028-2.935-1.551-4.915-1.551-4.373 0-7.18 3.419-7.18 7.634 0 4.059 2.974 7.444 7.136 7.444 2.891 0 4.44-1.691 6.09-3.795v6.07c-0.842 0.629-1.808 1.316-2.796 1.719-1.041 0.435-2.283 0.648-3.72 0.648-6.955 0-11.543-5.762-11.543-12.419 0-3.419 1.062-6.244 3.199-8.448 2.269-2.334 5.243-3.493 8.886-3.493 6.906 0 11.846 3.965 11.846 11.129v12.753h-0.34c-2.481 0-4.493-2.012-4.493-4.493v-8.642zm-24.56-13.047c-0.508 0.568-1.235 0.83-2.122 0.83-1.658 0-2.844-1.225-2.844-2.87 0-1.685 1.165-2.822 2.844-2.822 1.618 0 2.846 1.199 2.846 2.822 0 0.803-0.23 1.491-0.73 2.04zm-13.64 23.092c-2.218 2.38-5.072 3.568-8.534 3.568-3.651 0-6.629-1.261-8.894-3.79-2.131-2.392-3.191-5.391-3.191-8.963 0-6.324 4.883-11.607 11.303-11.607 2.479 0 4.63 0.521 6.804 1.714v5.232c-1.744-1.18-3.932-2.306-6.09-2.306-4.502 0-7.184 3.098-7.184 7.491 0 4.336 2.837 7.587 7.276 7.587 2.009 0 3.666-0.755 4.99-2.271 1.316-1.508 1.999-3.724 1.999-6.7v-16.281c0-2.481 2.012-4.493 4.495-4.493h0.337v21.537c-0.01 3.794-1.1 6.899-3.32 9.282zm-52.32 0.172c-2.226 2.258-4.89 3.396-7.976 3.396-2.496 0-4.618-0.511-6.784-1.768v-5.18c1.742 1.181 3.929 2.306 6.089 2.306 4.502 0 7.184-3.099 7.184-7.491 0-4.396-2.774-7.587-7.277-7.587-2.014 0-3.643 0.723-4.918 2.172-1.366 1.572-2.071 3.817-2.071 6.784v20.455h-0.339c-2.481 0-4.494-2.012-4.494-4.493v-16.728c0-7.098 4.341-12.83 11.801-12.83 3.681 0 6.673 1.259 8.941 3.788 2.132 2.363 3.19 5.36 3.19 8.964 0 3.208-1.11 5.95-3.34 8.212z" fill="#42B549"/>
		<path d="m51.647 61.273c-1.332-1.394-3.023-2.093-5.102-2.093-4.448 0-7.108 3.243-7.108 7.539 0 4.237 2.725 7.538 7.108 7.538 4.384 0 7.11-3.301 7.11-7.538 0-2.25-0.676-4.055-2.008-5.446zm47.537 0c-1.332-1.394-3.025-2.093-5.103-2.093-4.447 0-7.109 3.243-7.109 7.539 0 4.237 2.726 7.538 7.109 7.538 4.386 0 7.108-3.301 7.108-7.538 0-2.25-0.67-4.055-2.006-5.446zm3.486 14.189c-2.387 2.29-5.257 3.437-8.59 3.437-3.301 0-6.155-1.148-8.543-3.437-2.394-2.297-3.588-5.22-3.588-8.743 0-6.873 5.248-12.18 12.131-12.18 3.304 0 6.165 1.157 8.567 3.46 2.41 2.312 3.614 5.227 3.614 8.72 0 3.523-1.19 6.446-3.59 8.743zm-24.943-14.814c-0.709 1.188-1.258 2.042-1.645 2.556-0.427 0.56-0.847 1.008-1.264 1.316 3.358 1.087 4.609 3.413 4.609 6.879v7.023h-0.34c-2.482 0-4.494-2.012-4.494-4.493v-2.054c0-2.243-1.005-3.767-3.384-3.767h-4.389v10.314h-0.339c-2.482 0-4.494-2.012-4.494-4.493v-24.924c0-2.481 2.012-4.493 4.494-4.493h0.339v18.906h1.428c1.569 0 2.601-0.536 3.192-1.551l4.06-6.85 5.506-0.005-3.279 5.636zm-22.591 14.814c-2.389 2.29-5.258 3.437-8.591 3.437-3.302 0-6.156-1.148-8.542-3.437-2.396-2.297-3.591-5.22-3.591-8.743 0-6.873 5.251-12.18 12.133-12.18 3.304 0 6.164 1.157 8.566 3.46 2.411 2.312 3.614 5.227 3.614 8.72 0 3.523-1.195 6.446-3.589 8.743zm-28.065 2.959c-4.725 0-7.071-3.215-7.071-7.704v-17.033c0-2.481 2.011-4.493 4.494-4.493h0.339v5.825h8.164v4.642h-8.164v11.597c0 1.973 0.881 2.527 2.764 2.527h5.4v4.64h-5.926z" fill="#42B549"/>
</svg>
