<svg width="512" height="464" viewBox="0 0 512 464" fill="none" xmlns="http://www.w3.org/2000/svg">
<path d="M352.193 336.726H343.661V248.034C343.661 243.892 340.303 240.534 336.161 240.534C332.019 240.534 328.661 243.892 328.661 248.034V336.726H239.452V155.544L328.661 196.718V215.969C328.661 220.111 332.019 223.469 336.161 223.469C340.303 223.469 343.661 220.111 343.661 215.969V194.717L432.871 91.783V199.936C432.871 204.078 436.229 207.436 440.371 207.436C444.513 207.436 447.871 204.078 447.871 199.936V47.113H448.387C456.943 47.113 463.903 40.153 463.903 31.597V15.564C463.903 7.00797 456.943 0.0479736 448.387 0.0479736H15.516C6.96 0.0479736 0 7.00897 0 15.564V31.596C0 40.152 6.96 47.112 15.516 47.112H16.032V336.209C16.032 344.765 22.992 351.725 31.548 351.725H352.193C356.335 351.725 359.693 348.367 359.693 344.225C359.693 340.083 356.335 336.726 352.193 336.726ZM135.242 266.862L224.452 163.928V336.726H135.242V266.862ZM47.577 47.113C51.719 47.113 55.077 43.755 55.077 39.613C55.077 35.471 51.719 32.113 47.577 32.113H15.516C15.231 32.113 15 31.882 15 31.597V15.564C15 15.279 15.231 15.048 15.516 15.048H448.387C448.672 15.048 448.903 15.279 448.903 15.564V31.596C448.903 31.881 448.672 32.112 448.387 32.112H79.647C75.505 32.112 72.147 35.47 72.147 39.612C72.147 43.754 75.505 47.112 79.647 47.112H432.871V68.88L334.185 182.748L235.094 137.014C232.063 135.615 228.47 136.388 226.283 138.911L125.766 254.893L31.032 211.17V47.113H47.577ZM31.032 336.209V227.689L120.241 268.863V336.725H31.548C31.264 336.726 31.032 336.494 31.032 336.209V336.209Z" fill="#3CC0C6"/>
<path d="M472.952 272.081C472.952 290.046 458.336 304.662 440.371 304.662C422.406 304.662 407.79 290.046 407.79 272.081C407.79 254.116 422.406 239.5 440.371 239.5C442.57 239.5 444.765 239.719 446.894 240.152C450.958 240.974 454.913 238.354 455.737 234.295C456.561 230.235 453.939 226.276 449.88 225.452C446.77 224.821 443.57 224.5 440.371 224.5C414.135 224.5 392.79 245.845 392.79 272.081C392.79 298.317 414.135 319.662 440.371 319.662C466.607 319.662 487.952 298.317 487.952 272.081C487.952 265.469 486.619 259.065 483.991 253.048C482.333 249.253 477.912 247.521 474.116 249.177C470.321 250.835 468.588 255.257 470.245 259.052C472.041 263.165 472.952 267.548 472.952 272.081V272.081Z" fill="#F79432"/>
<path d="M503.964 357.839L481.895 338.528C475.716 333.122 467.332 331.361 459.471 333.813C447.085 337.678 433.658 337.678 421.272 333.813C413.408 331.359 405.026 333.123 398.848 338.528L376.779 357.839C371.672 362.308 368.743 368.763 368.743 375.549V440.419C368.743 453.395 379.3 463.951 392.276 463.951H488.469C501.445 463.951 512.001 453.394 512.001 440.419V375.549C512 368.763 509.071 362.308 503.964 357.839ZM497 440.419C497 445.124 493.172 448.951 488.468 448.951H392.275C387.57 448.951 383.742 445.123 383.742 440.419V375.549C383.742 373.089 384.804 370.748 386.656 369.128L408.725 349.817C410.282 348.455 412.233 347.738 414.241 347.738C415.094 347.738 415.957 347.867 416.804 348.132C432.085 352.9 448.658 352.901 463.939 348.132C466.78 347.247 469.799 347.876 472.018 349.817L494.088 369.128C495.94 370.748 497.002 373.088 497.002 375.549V440.419H497Z" fill="#F79432"/>
</svg>
