<svg width="384" height="512" viewBox="0 0 384 512" fill="none" xmlns="http://www.w3.org/2000/svg">
<path d="M367.643 114.535C357.244 90.9503 342.421 69.9895 323.587 52.2356C284.741 15.6149 233.87 -2.81294 180.367 0.349031C131.523 3.23401 85.9483 24.8508 52.0356 61.2186C18.1449 97.5613 -0.285982 144.538 0.138015 193.495C0.74901 264.149 41.1717 315.83 83.9684 370.544C113.009 407.673 143.038 446.065 163.39 493.337C168.271 504.675 179.503 512.001 192.003 512.001C204.498 512.001 215.736 504.656 220.631 493.288C240.983 446.039 271.002 407.66 300.032 370.544C343.145 315.424 383.869 263.359 383.869 191.875C383.87 164.975 378.411 138.954 367.643 114.535V114.535ZM288.218 361.302C258.6 399.168 227.974 438.323 206.855 487.354C204.331 493.214 198.501 497 192.003 497C185.5 497 179.677 493.233 177.167 487.404C156.048 438.35 125.411 399.181 95.7833 361.301C54.6016 308.652 15.7039 258.92 15.1369 193.364C14.7469 148.265 31.7478 104.968 63.0065 71.4465C94.2783 37.9107 136.273 17.9779 181.252 15.3219C184.887 15.1079 188.506 15.0009 192.111 15.0009C237.441 15.0009 280.127 31.8798 313.299 63.1505C330.665 79.5214 344.332 98.8463 353.918 120.587C363.839 143.087 368.87 167.072 368.87 191.875C368.87 258.189 329.694 308.276 288.218 361.302V361.302Z" fill="#3CC0C6"/>
<path d="M275.371 166.678C273.255 160.165 267.462 155.956 260.614 155.956H219.47L206.756 116.826C204.64 110.313 198.847 106.104 191.999 106.104C185.151 106.104 179.359 110.313 177.243 116.826L164.529 155.956H123.386C116.538 155.956 110.745 160.164 108.629 166.678C106.513 173.191 108.726 180 114.266 184.025L147.551 208.208L134.837 247.338C132.721 253.851 134.933 260.66 140.473 264.685C146.014 268.71 153.174 268.71 158.713 264.685L191.999 240.501L225.285 264.685C228.055 266.698 231.23 267.704 234.405 267.704C237.58 267.704 240.755 266.698 243.525 264.685C249.066 260.66 251.278 253.851 249.162 247.337L236.448 208.208L269.733 184.025C275.274 180 277.487 173.191 275.371 166.678ZM260.918 171.89L223.224 199.276C220.595 201.186 219.495 204.571 220.499 207.661L234.897 251.973C234.967 252.188 235.013 252.33 234.709 252.551C234.407 252.77 234.285 252.684 234.103 252.551L196.409 225.164C193.781 223.254 190.221 223.254 187.593 225.164L149.899 252.55C149.716 252.683 149.595 252.771 149.292 252.55C148.989 252.33 149.035 252.188 149.104 251.973L163.501 207.66C164.505 204.57 163.405 201.185 160.776 199.275L123.083 171.889C122.9 171.756 122.78 171.668 122.895 171.312C123.01 170.956 123.16 170.956 123.386 170.956H169.978C173.227 170.956 176.107 168.864 177.111 165.773L191.509 121.461C191.579 121.247 191.625 121.105 192 121.105C192.375 121.105 192.421 121.247 192.491 121.462L206.888 165.774C207.892 168.864 210.772 170.957 214.021 170.957H260.614C260.84 170.957 260.989 170.957 261.105 171.313C261.221 171.669 261.1 171.757 260.918 171.89V171.89Z" fill="#F79432"/>
<path d="M106.613 106.486C149.547 63.553 218.054 59.281 265.967 96.5487C269.237 99.0917 273.948 98.5037 276.491 95.2337C279.034 91.9638 278.445 87.2518 275.176 84.7088C221.303 42.8061 144.276 47.6081 96.0056 95.8787C47.735 144.149 42.932 221.177 84.8357 275.049C86.3147 276.95 88.5257 277.945 90.7607 277.945C92.3697 277.945 93.9916 277.429 95.3596 276.365C98.6296 273.822 99.2176 269.11 96.6746 265.841C59.4079 217.927 63.6799 149.418 106.613 106.486V106.486Z" fill="#F79432"/>
<path d="M288.64 107.382C285.37 109.925 284.782 114.637 287.325 117.906C324.594 165.821 320.322 234.328 277.388 277.261C234.454 320.195 165.948 324.466 118.032 287.198C114.762 284.655 110.05 285.244 107.508 288.513C104.965 291.783 105.554 296.494 108.823 299.038C133.379 318.138 162.741 327.533 192.003 327.533C226.938 327.533 261.726 314.137 287.995 287.868C336.266 239.597 341.068 162.57 299.165 108.697C296.622 105.428 291.909 104.838 288.64 107.382V107.382Z" fill="#F79432"/>
</svg>
