<svg width="512" height="512" viewBox="0 0 512 512" fill="none" xmlns="http://www.w3.org/2000/svg">
<path d="M495.85 210.825C492.074 204.521 488.508 198.566 487.295 194.031C485.962 189.04 486.056 181.829 486.155 174.192C486.334 160.396 486.557 143.226 477.721 127.953C468.775 112.501 453.686 104.096 441.545 97.333C434.975 93.672 428.769 90.214 425.28 86.728C421.778 83.223 418.322 77.015 414.662 70.441C407.908 58.316 399.502 43.226 384.041 34.282C368.751 25.434 351.589 25.659 337.806 25.845C330.169 25.943 322.96 26.036 317.97 24.706C313.434 23.492 307.479 19.925 301.176 16.151C289.166 8.956 274.219 0 256 0C237.781 0 222.834 8.956 210.825 16.15C204.521 19.926 198.566 23.492 194.031 24.705C189.164 26.004 182.131 25.929 174.683 25.85L174.196 25.845C160.408 25.662 143.248 25.435 127.953 34.279C112.502 43.224 104.097 58.313 97.334 70.453C93.673 77.024 90.215 83.23 86.728 86.719C83.224 90.22 77.016 93.676 70.441 97.336C58.316 104.09 43.227 112.495 34.283 127.956C25.443 143.224 25.666 160.394 25.845 174.193C25.944 181.828 26.037 189.039 24.706 194.029C23.492 198.564 19.926 204.519 16.151 210.823C8.956 222.834 0 237.782 0 256C0 274.218 8.956 289.166 16.15 301.175C19.926 307.479 23.492 313.434 24.705 317.969C26.038 322.96 25.944 330.171 25.845 337.808C25.666 351.604 25.443 368.774 34.279 384.047C43.225 399.499 58.314 407.904 70.455 414.667C77.025 418.328 83.231 421.786 86.72 425.272C90.222 428.776 93.678 434.984 97.338 441.559C104.092 453.684 112.497 468.773 127.957 477.716C143.284 486.592 160.426 486.35 174.205 486.154C181.466 486.051 188.974 485.942 194.03 487.293C198.565 488.507 204.52 492.073 210.824 495.848C222.834 503.044 237.781 512 256 512C274.219 512 289.166 503.044 301.175 495.85C307.48 492.074 313.435 488.508 317.974 487.294C322.899 485.976 330.027 486.062 337.572 486.152L337.799 486.154C351.578 486.348 368.721 486.59 384.048 477.72C399.499 468.775 407.904 453.685 414.668 441.544C418.329 434.974 421.787 428.768 425.273 425.279C428.777 421.777 434.985 418.321 441.56 414.662C453.685 407.908 468.774 399.503 477.718 384.042C486.558 368.774 486.335 351.604 486.156 337.805C486.057 330.17 485.964 322.959 487.295 317.969C488.509 313.434 492.075 307.479 495.85 301.175C503.044 289.166 512 274.218 512 256C512 237.782 503.044 222.834 495.85 210.825V210.825ZM482.98 293.468C478.65 300.699 474.56 307.529 472.801 314.098C470.936 321.089 471.042 329.304 471.155 338.003C471.326 351.195 471.503 364.837 464.733 376.53C457.859 388.413 445.861 395.096 434.26 401.558C426.748 405.74 419.652 409.69 414.664 414.673C409.698 419.644 405.746 426.736 401.552 434.262C395.088 445.866 388.405 457.864 376.531 464.738C364.789 471.532 350.563 471.333 337.991 471.155L337.749 471.152C329.143 471.048 321.012 470.951 314.094 472.802C307.527 474.558 300.697 478.649 293.464 482.98C281.964 489.874 270.069 497 256 497C241.931 497 230.036 489.874 218.532 482.98C211.301 478.65 204.47 474.56 197.906 472.802C192.57 471.376 186.382 471.096 180.106 471.096C178.068 471.096 176.021 471.126 173.99 471.155C161.443 471.336 147.215 471.534 135.47 464.733C123.588 457.859 116.904 445.861 110.442 434.26C106.26 426.748 102.31 419.652 97.326 414.664C92.355 409.698 85.263 405.746 77.738 401.553C66.134 395.089 54.135 388.406 47.261 376.533C40.495 364.837 40.672 351.195 40.844 338C40.957 329.303 41.063 321.088 39.197 314.097C37.441 307.529 33.35 300.699 29.019 293.467C22.126 281.963 15 270.068 15 256C15 241.932 22.126 230.037 29.02 218.532C33.35 211.301 37.44 204.471 39.199 197.902C41.064 190.911 40.958 182.696 40.845 173.997C40.674 160.805 40.497 147.163 47.267 135.47C54.141 123.587 66.139 116.904 77.74 110.442C85.252 106.26 92.348 102.311 97.336 97.327C102.303 92.356 106.254 85.264 110.448 77.737C116.912 66.133 123.595 54.135 135.466 47.263C147.181 40.489 160.816 40.671 174.018 40.845L174.524 40.85C183.024 40.941 191.053 41.026 197.904 39.197C204.471 37.44 211.301 33.35 218.533 29.019C230.036 22.126 241.931 15 256 15C270.069 15 281.964 22.126 293.468 29.02C300.699 33.35 307.529 37.44 314.099 39.199C321.092 41.063 329.306 40.958 338.003 40.845C350.574 40.679 364.817 40.489 376.53 47.267C388.412 54.14 395.095 66.139 401.558 77.74C405.74 85.252 409.689 92.347 414.674 97.336C419.645 102.302 426.737 106.254 434.262 110.447C445.866 116.911 457.865 123.594 464.739 135.467C471.505 147.163 471.328 160.805 471.156 174C471.043 182.697 470.937 190.912 472.803 197.903C474.559 204.471 478.65 211.301 482.981 218.533C489.874 230.037 497 241.932 497 256C497 270.068 489.874 281.963 482.98 293.468V293.468Z" fill="#3CC0C6"/>
<path d="M78.4649 364.233C76.8329 362.873 75.6729 361.608 75.0169 360.475C72.6729 356.421 72.7909 347.269 72.9049 338.418C73.0399 327.923 73.1799 317.07 70.1739 305.822C67.2609 294.915 61.8029 285.804 56.5239 276.993C51.8739 269.229 47.0649 261.201 47.0649 256C47.0649 250.799 51.8739 242.771 56.5249 235.007C61.8029 226.197 67.2609 217.087 70.1739 206.184C73.1809 194.93 73.0409 184.079 72.9059 173.586C72.7919 164.735 72.6729 155.582 75.0219 151.527C77.4629 147.307 85.5239 142.815 93.3889 138.433C102.479 133.368 111.879 128.13 120.01 119.999C128.15 111.855 133.389 102.444 138.458 93.34C142.808 85.534 147.306 77.462 151.527 75.019C155.557 72.687 164.656 72.799 173.457 72.905L173.663 72.908C184.13 73.037 194.955 73.175 206.181 70.176C217.089 67.262 226.2 61.804 235.009 56.526C242.773 51.876 250.801 47.067 256.002 47.067C261.203 47.067 269.231 51.876 276.994 56.526C285.804 61.805 294.914 67.263 305.817 70.176C317.094 73.192 327.936 73.048 338.4 72.908L338.794 72.904C347.492 72.812 356.489 72.715 360.477 75.024C363.782 76.935 367.367 82.601 369.776 86.696C371.876 90.267 376.473 91.459 380.043 89.358C383.613 87.258 384.805 82.661 382.705 79.091C378.751 72.369 374.231 65.651 367.991 62.042C360.445 57.672 349.849 57.785 338.634 57.905L338.221 57.909C328.757 58.035 318.968 58.165 309.692 55.685C300.82 53.314 292.628 48.406 284.704 43.658C274.752 37.697 265.352 32.067 256.003 32.067C246.654 32.067 237.254 37.697 227.302 43.659C219.379 48.406 211.186 53.314 202.311 55.685C193.08 58.151 183.306 58.029 173.772 57.909L173.641 57.908C162.315 57.769 151.618 57.64 144.016 62.037C136.216 66.551 130.941 76.018 125.352 86.047C120.785 94.25 116.062 102.732 109.403 109.395C102.752 116.046 94.2809 120.766 86.0199 125.369C76.0079 130.948 66.5509 136.218 62.0409 144.015C57.6229 151.645 57.7619 162.398 57.9089 173.781C58.0319 183.258 58.1579 193.057 55.6849 202.314C53.3149 211.184 48.4069 219.377 43.6589 227.302C37.6979 237.254 32.0679 246.654 32.0679 256.003C32.0679 265.352 37.6979 274.752 43.6599 284.706C48.4069 292.629 53.3149 300.821 55.6849 309.697C58.1579 318.948 58.0319 328.75 57.9089 338.228C57.7619 349.609 57.6229 360.359 62.0359 367.99C63.5989 370.691 65.8319 373.232 68.8629 375.758C70.2649 376.927 71.9679 377.497 73.6609 377.497C75.8089 377.497 77.9429 376.578 79.4259 374.799C82.0759 371.614 81.6469 366.885 78.4649 364.233V364.233Z" fill="#3CC0C6"/>
<path d="M456.318 202.307C453.845 193.056 453.971 183.254 454.094 173.776C454.241 162.395 454.38 151.645 449.967 144.014C445.452 136.214 435.985 130.938 425.956 125.35C417.753 120.783 409.27 116.06 402.608 109.402C401.573 108.366 400.542 107.244 399.544 106.066C396.867 102.906 392.135 102.514 388.973 105.192C385.813 107.87 385.422 112.602 388.099 115.763C389.362 117.254 390.675 118.682 392.002 120.01C400.146 128.149 409.557 133.389 418.659 138.457C426.466 142.807 434.539 147.306 436.983 151.527C439.327 155.581 439.209 164.733 439.095 173.584C438.96 184.079 438.82 194.932 441.826 206.18C444.739 217.087 450.197 226.198 455.476 235.009C460.126 242.773 464.935 250.801 464.935 256.002C464.935 261.203 460.126 269.231 455.475 276.995C450.197 285.805 444.739 294.915 441.826 305.818C438.819 317.072 438.959 327.923 439.094 338.416C439.208 347.267 439.327 356.42 436.978 360.475C434.537 364.695 426.476 369.187 418.611 373.569C409.521 378.634 400.121 383.872 391.99 392.003C383.851 400.146 378.611 409.558 373.542 418.661C369.192 426.468 364.694 434.54 360.471 436.984C356.467 439.301 347.418 439.198 338.666 439.098L338.419 439.095C327.923 438.957 317.067 438.811 305.819 441.826C294.912 444.739 285.801 450.197 276.99 455.476C269.226 460.126 261.198 464.935 255.997 464.935C250.796 464.935 242.768 460.126 235.003 455.475C226.193 450.197 217.083 444.739 206.181 441.826C196.994 439.37 187.848 439.039 180.113 439.039C177.924 439.039 175.747 439.066 173.575 439.094C165.154 439.211 155.604 439.342 151.522 436.978C147.302 434.537 142.811 426.477 138.426 418.608C133.361 409.519 128.124 400.12 119.994 391.99C115.809 387.807 110.939 384.033 104.666 380.111C101.153 377.915 96.5262 378.983 94.3312 382.494C92.1352 386.006 93.2022 390.633 96.7142 392.829C102.001 396.134 106.028 399.239 109.389 402.598C116.039 409.248 120.759 417.718 125.364 425.983C130.943 435.994 136.212 445.451 144.01 449.962C151.673 454.396 162.412 454.247 173.774 454.093C175.876 454.066 177.988 454.039 180.112 454.039C187.213 454.039 194.817 454.315 202.307 456.317C211.177 458.687 219.37 463.595 227.295 468.343C237.247 474.304 246.646 479.934 255.996 479.934C265.346 479.934 274.745 474.304 284.698 468.342C292.621 463.595 300.814 458.687 309.694 456.315C318.943 453.836 328.74 453.966 338.232 454.092L338.492 454.095C349.765 454.223 360.412 454.345 367.982 449.965C375.782 445.45 381.057 435.984 386.645 425.954C391.212 417.751 395.936 409.268 402.594 402.606C409.245 395.955 417.716 391.235 425.977 386.632C435.989 381.053 445.446 375.783 449.956 367.986C454.374 360.356 454.235 349.603 454.088 338.22C453.965 328.743 453.839 318.944 456.312 309.687C458.682 300.817 463.59 292.624 468.338 284.699C474.299 274.747 479.929 265.347 479.929 255.998C479.929 246.649 474.299 237.249 468.337 227.295C463.597 219.375 458.688 211.182 456.318 202.307V202.307Z" fill="#3CC0C6"/>
<path d="M175.839 359.694C182.129 359.694 188.039 357.245 192.477 352.8L352.798 192.479C357.244 188.035 359.693 182.126 359.693 175.839C359.693 169.552 357.244 163.643 352.803 159.204C348.361 154.756 342.45 152.307 336.16 152.307C329.87 152.307 323.96 154.757 319.522 159.201L305.494 173.229C302.565 176.158 302.565 180.906 305.494 183.835C308.423 186.764 313.172 186.764 316.1 183.835L330.132 169.804C331.74 168.194 333.881 167.307 336.16 167.307C338.439 167.307 340.58 168.194 342.194 169.809C343.805 171.419 344.693 173.561 344.693 175.839C344.693 178.118 343.806 180.259 342.193 181.871L181.867 342.197C180.26 343.807 178.118 344.694 175.839 344.694C173.56 344.694 171.419 343.807 169.805 342.192C168.194 340.582 167.306 338.44 167.306 336.161C167.306 333.883 168.193 331.741 169.806 330.129L292.804 207.132C295.733 204.203 295.733 199.455 292.804 196.526C289.875 193.597 285.126 193.597 282.198 196.526L159.202 319.521C154.756 323.965 152.307 329.874 152.307 336.161C152.307 342.448 154.756 348.358 159.197 352.796C163.639 357.244 169.549 359.694 175.839 359.694V359.694Z" fill="#F79432"/>
<path d="M207.387 183.855C207.387 170.879 196.83 160.323 183.855 160.323C170.88 160.323 160.323 170.879 160.323 183.855C160.323 196.831 170.88 207.387 183.855 207.387C196.83 207.387 207.387 196.831 207.387 183.855ZM175.323 183.855C175.323 179.15 179.151 175.323 183.855 175.323C188.559 175.323 192.387 179.151 192.387 183.855C192.387 188.56 188.559 192.387 183.855 192.387C179.151 192.387 175.323 188.56 175.323 183.855Z" fill="#F79432"/>
<path d="M239.452 183.855C239.452 153.199 214.512 128.258 183.855 128.258C153.198 128.258 128.258 153.199 128.258 183.855C128.258 214.511 153.198 239.452 183.855 239.452C214.512 239.452 239.452 214.511 239.452 183.855ZM143.258 183.855C143.258 161.47 161.469 143.258 183.855 143.258C206.241 143.258 224.452 161.47 224.452 183.855C224.452 206.24 206.241 224.452 183.855 224.452C161.469 224.452 143.258 206.24 143.258 183.855Z" fill="#F79432"/>
<path d="M328.145 351.677C341.121 351.677 351.677 341.121 351.677 328.145C351.677 315.169 341.12 304.613 328.145 304.613C315.17 304.613 304.613 315.17 304.613 328.145C304.613 341.12 315.169 351.677 328.145 351.677ZM328.145 319.613C332.85 319.613 336.677 323.441 336.677 328.145C336.677 332.85 332.849 336.677 328.145 336.677C323.441 336.677 319.613 332.849 319.613 328.145C319.613 323.44 323.44 319.613 328.145 319.613Z" fill="#F79432"/>
<path d="M328.145 383.742C358.801 383.742 383.742 358.801 383.742 328.145C383.742 297.489 358.802 272.548 328.145 272.548C297.488 272.548 272.548 297.489 272.548 328.145C272.548 358.801 297.489 383.742 328.145 383.742ZM328.145 287.548C350.53 287.548 368.742 305.76 368.742 328.145C368.742 350.53 350.531 368.742 328.145 368.742C305.759 368.742 287.548 350.53 287.548 328.145C287.548 305.76 305.76 287.548 328.145 287.548Z" fill="#F79432"/>
</svg>
