<svg width="512" height="480" viewBox="0 0 512 480" fill="none" xmlns="http://www.w3.org/2000/svg">
<path d="M504.5 432.903H471.919V159.839C471.919 142.443 457.767 128.291 440.371 128.291H344.181C340.039 128.291 336.681 131.649 336.681 135.791C336.681 139.933 340.039 143.291 344.181 143.291H440.371C449.496 143.291 456.919 150.715 456.919 159.839V432.904H431.248C431.635 430.072 431.838 427.222 431.838 424.372C431.838 389.296 403.301 360.759 368.225 360.759C363.509 360.759 358.8 361.298 354.158 362.365C346.066 346.773 329.947 336.71 312.113 336.71C306.295 336.71 300.644 337.771 295.324 339.832C293.139 320.068 276.337 304.645 256 304.645C235.663 304.645 218.861 320.068 216.676 339.832C211.356 337.771 205.705 336.71 199.887 336.71C182.053 336.71 165.933 346.773 157.842 362.365C153.199 361.297 148.491 360.759 143.775 360.759C108.698 360.759 80.162 389.296 80.162 424.372C80.162 427.223 80.365 430.072 80.752 432.904H55.081V159.839C55.081 150.714 62.504 143.291 71.629 143.291H167.822C171.964 143.291 175.322 139.933 175.322 135.791C175.322 131.649 171.964 128.291 167.822 128.291H71.629C54.233 128.291 40.081 142.444 40.081 159.839V432.904H7.5C3.358 432.904 0 436.262 0 440.404V456.436C0 469.412 10.557 479.968 23.532 479.968H488.468C501.444 479.968 512 469.411 512 456.436V440.404C512 436.261 508.642 432.903 504.5 432.903V432.903ZM497 456.436C497 461.141 493.172 464.968 488.468 464.968H23.532C18.827 464.968 15 461.14 15 456.436V447.904H111.707C115.849 447.904 119.207 444.546 119.207 440.404C119.207 436.262 115.849 432.904 111.707 432.904H95.929C95.42 430.077 95.161 427.223 95.161 424.372C95.161 397.567 116.969 375.759 143.774 375.759C149.113 375.759 154.459 376.673 159.664 378.475C161.549 379.128 163.615 379.003 165.408 378.129C167.2 377.254 168.57 375.702 169.216 373.815C173.737 360.594 186.063 351.711 199.888 351.711C207.469 351.711 214.669 354.394 220.711 359.471C223.262 361.614 226.92 361.818 229.693 359.971C232.466 358.124 233.688 354.67 232.694 351.491C231.836 348.745 231.436 346.432 231.436 344.211C231.436 330.666 242.456 319.647 256 319.647C269.544 319.647 280.564 330.667 280.564 344.211C280.564 346.432 280.164 348.745 279.306 351.491C278.312 354.671 279.535 358.125 282.307 359.971C285.08 361.817 288.738 361.614 291.289 359.471C297.331 354.395 304.532 351.711 312.112 351.711C325.937 351.711 338.263 360.594 342.784 373.815C343.43 375.702 344.8 377.254 346.592 378.129C348.385 379.004 350.452 379.129 352.336 378.475C357.541 376.673 362.886 375.759 368.226 375.759C395.032 375.759 416.839 397.567 416.839 424.372C416.839 427.223 416.579 430.077 416.071 432.904H143.777C139.635 432.904 136.277 436.262 136.277 440.404C136.277 444.546 139.635 447.904 143.777 447.904H497V456.436Z" fill="#3CC0C6"/>
<path d="M159.619 220.494C154.904 226.152 152.307 233.325 152.307 240.691V264.049C152.307 266.715 153.723 269.181 156.025 270.526C157.193 271.208 158.5 271.549 159.807 271.549C161.078 271.549 162.349 271.227 163.493 270.581L216.903 240.444C218.938 244.16 221.096 247.816 223.375 251.405L216.661 278.262C216.1 280.503 216.604 282.876 218.025 284.697C219.446 286.518 221.627 287.582 223.937 287.582H288.066C290.376 287.582 292.556 286.518 293.978 284.697C295.399 282.877 295.903 280.503 295.342 278.262L288.628 251.405C290.907 247.816 293.065 244.161 295.1 240.444L348.51 270.581C349.655 271.227 350.925 271.549 352.196 271.549C353.503 271.549 354.81 271.207 355.978 270.526C358.28 269.182 359.696 266.716 359.696 264.049V240.691C359.696 233.325 357.099 226.152 352.384 220.494L316.78 177.783C318.655 166.642 319.615 155.283 319.615 143.807C319.615 116.456 314.32 90.018 303.877 65.229C293.805 41.321 279.468 20.111 261.264 2.18797C258.345 -0.686029 253.66 -0.686029 250.741 2.18797C232.537 20.11 218.2 41.32 208.128 65.229C197.685 90.019 192.39 116.456 192.39 143.807C192.39 155.265 193.347 166.607 195.216 177.731L159.619 220.494ZM167.307 251.205V240.691C167.307 236.827 168.669 233.065 171.142 230.097L199.254 196.363C202.063 206.871 205.714 217.119 210.19 227.009L167.307 251.205ZM233.542 272.581L237.808 255.517H274.193L278.459 272.581H233.542ZM340.858 230.097C343.331 233.065 344.693 236.827 344.693 240.691V251.205L301.81 227.008C306.285 217.118 309.937 206.871 312.746 196.362L340.858 230.097ZM256 18.29C268.595 31.829 278.983 47.353 286.878 64.162H225.122C233.017 47.353 243.405 31.829 256 18.29ZM218.872 79.161H293.127C300.626 99.606 304.612 121.525 304.612 143.806C304.612 178.294 295.334 211.639 277.74 240.516H234.259C216.665 211.639 207.387 178.294 207.387 143.806C207.387 121.525 211.374 99.607 218.872 79.161V79.161Z" fill="#F79432"/>
<path d="M287.548 135.79C287.548 118.394 273.396 104.242 256 104.242C238.604 104.242 224.452 118.395 224.452 135.79C224.452 153.185 238.604 167.338 256 167.338C273.396 167.338 287.548 153.186 287.548 135.79ZM239.452 135.79C239.452 126.665 246.875 119.242 256 119.242C265.125 119.242 272.548 126.666 272.548 135.79C272.548 144.914 265.125 152.338 256 152.338C246.875 152.338 239.452 144.915 239.452 135.79Z" fill="#F79432"/>
</svg>
